<?xml version="1.0" encoding="UTF-8" standalone="no"?>
<!-- Created with Inkscape (http://www.inkscape.org/) -->

<svg
   width="40.639999mm"
   height="128.5mm"
   viewBox="0 0 40.639999 128.5"
   version="1.1"
   id="svg1"
   inkscape:version="1.3.2 (091e20e, 2023-11-25, custom)"
   sodipodi:docname="Smitty.svg"
   xmlns:inkscape="http://www.inkscape.org/namespaces/inkscape"
   xmlns:sodipodi="http://sodipodi.sourceforge.net/DTD/sodipodi-0.dtd"
   xmlns="http://www.w3.org/2000/svg"
   xmlns:svg="http://www.w3.org/2000/svg"
   xmlns:rdf="http://www.w3.org/1999/02/22-rdf-syntax-ns#"
   xmlns:cc="http://creativecommons.org/ns#"
   xmlns:dc="http://purl.org/dc/elements/1.1/">
  <sodipodi:namedview
     id="namedview1"
     pagecolor="#bb91ff"
     bordercolor="#000000"
     borderopacity="0.25"
     inkscape:showpageshadow="2"
     inkscape:pageopacity="0.0"
     inkscape:pagecheckerboard="true"
     inkscape:deskcolor="#d1d1d1"
     inkscape:document-units="mm"
     inkscape:zoom="2"
     inkscape:cx="128.5"
     inkscape:cy="335.75"
     inkscape:window-width="1584"
     inkscape:window-height="1155"
     inkscape:window-x="334"
     inkscape:window-y="106"
     inkscape:window-maximized="0"
     inkscape:current-layer="layer1"
     showguides="true">
    <sodipodi:guide
       position="0,128.5"
       orientation="0,153.6"
       id="guide1"
       inkscape:locked="false" />
    <sodipodi:guide
       position="40.639999,128.5"
       orientation="485.66929,0"
       id="guide2"
       inkscape:locked="false" />
    <sodipodi:guide
       position="40.639999,0"
       orientation="0,-153.6"
       id="guide3"
       inkscape:locked="false" />
    <sodipodi:guide
       position="0,0"
       orientation="-485.66929,0"
       id="guide4"
       inkscape:locked="false" />
  </sodipodi:namedview>
  <defs
     id="defs1">
    <rect
       x="29.5"
       y="119"
       width="88.5"
       height="29.5"
       id="rect14" />
    <rect
       x="41.5"
       y="161"
       width="99"
       height="45"
       id="rect13" />
    <rect
       x="35"
       y="186"
       width="115"
       height="35"
       id="rect12" />
    <rect
       x="21.5"
       y="54"
       width="74.5"
       height="28"
       id="rect11" />
    <rect
       x="33"
       y="212"
       width="76"
       height="30"
       id="rect8" />
    <rect
       x="5"
       y="13"
       width="107"
       height="31"
       id="rect3" />
    <rect
       x="42"
       y="361"
       width="92"
       height="63"
       id="rect10" />
    <rect
       x="57"
       y="271"
       width="99.000001"
       height="71.000001"
       id="rect9" />
    <rect
       x="9"
       y="61"
       width="139"
       height="24"
       id="rect7" />
    <rect
       x="17.225366"
       y="29.665908"
       width="128.70667"
       height="54.407697"
       id="rect5" />
    <rect
       x="25.838049"
       y="44.977345"
       width="100.4813"
       height="34.450732"
       id="rect4" />
  </defs>
  <g
     inkscape:groupmode="layer"
     id="layer3"
     inkscape:label="background"
     sodipodi:insensitive="true">
    <rect
       style="fill:#e5e5e5;fill-opacity:1;fill-rule:evenodd;stroke-width:0.264583"
       id="rect2"
       width="40.639999"
       height="128.5"
       x="0"
       y="8.437695e-15"
       inkscape:label="panel" />
    <rect
       style="display:inline;fill:#000000;stroke-width:0.264583"
       id="rect1"
       width="10.31875"
       height="10.318752"
       x="5.7606263"
       y="100.67394"
       inkscape:label="sine" />
    <rect
       style="display:inline;fill:#000000;stroke-width:0.264583"
       id="rect6"
       width="10.31875"
       height="10.318752"
       x="24.560623"
       y="100.67394"
       inkscape:label="quadrature" />
  </g>
  <g
     inkscape:label="Layer 1"
     inkscape:groupmode="layer"
     id="layer1"
     sodipodi:insensitive="true">
    <path
       style="font-size:18.6667px;line-height:30.61px;font-family:Xolonium;-inkscape-font-specification:'Xolonium, Normal';letter-spacing:4px;white-space:pre;stroke-width:1.00157"
       d="m 36.213336,206.90501 h 10.266685 c 1.86667,0 2.986672,-0.74667 2.986672,-2.24 v -3.17334 c 0,-1.49334 -1.120002,-2.24001 -2.986672,-2.24001 h -6.720012 c -0.466668,0 -0.746668,-0.18666 -0.746668,-0.56 v -1.96 c 0,-0.37333 0.28,-0.56 0.746668,-0.56 h 8.773349 v -1.58667 h -9.33335 c -1.86667,0 -2.986672,0.74667 -2.986672,2.24 v 1.77334 c 0,1.49334 1.120002,2.24 2.986672,2.24 h 6.720012 c 0.466667,0 0.746668,0.18667 0.746668,0.56 v 3.36001 c 0,0.37333 -0.280001,0.56 -0.746668,0.56 h -9.706684 z m 19.866697,0 h 2.800005 v -8.58668 l 4.293341,8.58668 h 2.613339 l 4.293341,-8.58668 v 8.58668 h 2.800005 v -12.32002 h -3.546673 l -4.853342,9.70668 -4.853343,-9.70668 h -3.546673 z m 23.600022,0 h 2.800005 v -12.32002 h -2.800005 z m 8.666659,-10.73335 h 5.973344 v 10.73335 h 2.800006 v -10.73335 h 5.973346 v -1.58667 H 88.346714 Z m 20.053376,0 h 5.97334 v 10.73335 h 2.8 v -10.73335 h 5.97335 v -1.58667 h -14.74669 z m 19.40003,-1.58667 6.34667,7.46668 v 4.85334 h 2.80001 v -4.85334 l 6.34668,-7.46668 h -3.17334 l -4.57334,5.41334 -4.57334,-5.41334 z"
       id="text2"
       inkscape:label="smitty"
       transform="matrix(0.26458333,0,0,0.26458333,-3.4272555,-42.978944)"
       aria-label="SMITTY" />
    <path
       style="font-size:14.6667px;line-height:35.7143px;font-family:Xolonium;-inkscape-font-specification:'Xolonium, Normal';letter-spacing:0px;white-space:pre;stroke-width:0.264583"
       d="m 15.698621,96.704455 c 0,0.310444 0.232834,0.465667 0.62089,0.465667 h 1.51342 c 0.388057,0 0.620891,-0.155223 0.620891,-0.465667 v -1.629839 c 0,-0.310443 -0.232834,-0.465666 -0.620891,-0.465666 h -1.51342 c -0.388056,0 -0.62089,0.155223 -0.62089,0.465666 z m 0.582085,0.01939 v -1.668642 c 0,-0.07761 0.05821,-0.116417 0.155222,-0.116417 h 1.280586 c 0.09701,0 0.155223,0.0388 0.155223,0.116417 v 1.668642 c 0,0.07761 -0.05821,0.116417 -0.155223,0.116417 h -1.280586 c -0.09701,0 -0.155222,-0.03881 -0.155222,-0.116417 z m 2.755202,-0.01939 c 0,0.310444 0.232834,0.465667 0.620891,0.465667 h 1.51342 c 0.388056,0 0.62089,-0.155223 0.62089,-0.465667 V 94.60895 h -0.582084 v 2.114907 c 0,0.07761 -0.05821,0.116417 -0.155223,0.116417 h -1.280586 c -0.09701,0 -0.155223,-0.03881 -0.155223,-0.116417 V 94.60895 h -0.582085 z m 3.14326,-1.765657 h 1.24178 v 2.231324 h 0.582085 v -2.231324 h 1.241781 V 94.60895 h -3.065646 z"
       id="text10"
       aria-label="OUT"
       inkscape:label="out" />
    <path
       d="m 6.8475,120.5 0.931328,2.794 h 0.825495 l 0.719661,-2.159 0.719663,2.159 h 0.825495 L 11.800469,120.5 H 11.165473 L 10.424645,122.7225 9.683816,120.5 H 8.964154 L 8.223325,122.7225 7.482496,120.5 Z m 5.7573,2.794 h 0.634996 l 0.389464,-0.78317 h 1.464724 l 0.389465,0.78317 h 0.634996 L 14.721454,120.5 h -0.719663 z m 1.206492,-1.143 0.55033,-1.10067 0.55033,1.10067 z m 2.942149,-1.651 1.396991,2.794 h 0.719662 l 1.396991,-2.794 h -0.656162 l -1.10066,2.20133 -1.10066,-2.20133 z m 4.889469,2.794 h 2.328319 c 0.42333,0 0.677328,-0.16933 0.677328,-0.508 v -0.71967 c 0,-0.33866 -0.253998,-0.508 -0.677328,-0.508 h -1.523991 c -0.105832,0 -0.169332,-0.0423 -0.169332,-0.127 v -0.4445 c 0,-0.0847 0.0635,-0.127 0.169332,-0.127 h 1.989655 V 120.5 h -2.116654 c -0.42333,0 -0.677329,0.16933 -0.677329,0.508 v 0.40217 c 0,0.33866 0.253999,0.508 0.677329,0.508 h 1.52399 c 0.105833,0 0.169332,0.0423 0.169332,0.127 v 0.762 c 0,0.0847 -0.0635,0.127 -0.169332,0.127 H 21.64291 Z m 4.212138,-2.794 1.439324,1.69333 v 1.10067 h 0.634996 v -1.10067 L 29.368692,120.5 H 28.64903 L 27.61187,121.72767 26.574709,120.5 Z m 4.931805,2.794 h 0.634996 v -2.032 l 1.693322,2.032 H 33.7925 V 120.5 h -0.634996 v 2.032 L 31.464182,120.5 h -0.677329 z"
       id="logo"
       style="font-size:16px;line-height:30.61px;font-family:Xolonium;-inkscape-font-specification:'Xolonium, Normal';letter-spacing:4px;white-space:pre;shape-padding:7;display:inline;stroke-width:0.264998"
       aria-label="WAVSYN" />
    <path
       d="m 33.16,221.545 5.28,10.56 h 2.72 l 5.28,-10.56 h -2.48 l -4.16,8.32 -4.16,-8.32 z m 13.560007,10.56 h 2.08 l 5.28,-10.56 h -2.08 z m 9.960004,-1.92 c 0,1.28 0.96,1.92 2.56,1.92 h 6.24 c 1.6,0 2.56,-0.64 2.56,-1.92 v -6.72 c 0,-1.28 -0.96,-1.92 -2.56,-1.92 h -6.24 c -1.6,0 -2.56,0.64 -2.56,1.92 z m 2.4,0.08 v -6.88 c 0,-0.32 0.24,-0.48 0.64,-0.48 h 5.28 c 0.4,0 0.64,0.16 0.64,0.48 v 6.88 c 0,0.32 -0.24,0.48 -0.64,0.48 h -5.28 c -0.4,0 -0.64,-0.16 -0.64,-0.48 z m 12.36001,-0.08 c 0,1.28 0.96,1.92 2.56,1.92 h 8.16 v -1.36 h -7.68 c -0.4,0 -0.64,-0.16 -0.64,-0.48 v -6.88 c 0,-0.32 0.24,-0.48 0.64,-0.48 h 7.68 v -1.36 h -8.16 c -1.6,0 -2.56,0.64 -2.56,1.92 z m 12.999988,-7.28 h 5.12 v 9.2 h 2.4 v -9.2 h 5.12 v -1.36 h -12.64 z"
       id="text6"
       style="font-size:16px;line-height:30.61px;font-family:Xolonium;-inkscape-font-specification:'Xolonium, Normal';letter-spacing:1px;white-space:pre;stroke-width:1.00157"
       inkscape:label="voct"
       transform="matrix(0.26458333,0,0,0.26458333,3.0903321,15.883886)"
       aria-label="V/OCT" />
    <path
       style="font-size:4.23333px;line-height:6.94191px;font-family:Xolonium;-inkscape-font-specification:'Xolonium, Normal';letter-spacing:0.264583px;display:inline;fill:#2f1702;stroke-width:0.265"
       d="m 7.6570508,39.983585 h 0.6349994 l 0.3894664,-0.783166 h 1.4647324 l 0.389466,0.783166 h 0.634999 L 9.7737157,37.189587 H 9.0540496 Z m 1.206499,-1.142999 0.5503328,-1.100666 0.5503329,1.100666 z m 2.9315822,1.142999 h 2.836331 v -0.359833 h -2.201331 v -2.434165 h -0.635 z m 3.524249,0 h 0.635 v -2.793998 h -0.635 z m 1.259412,0 h 0.635 l 0.389466,-0.783166 h 1.464732 l 0.389466,0.783166 h 0.635 l -1.396999,-2.793998 h -0.719666 z m 1.206499,-1.142999 0.550333,-1.100666 0.550333,1.100666 z m 2.889249,1.142999 h 2.328332 c 0.423333,0 0.677333,-0.169334 0.677333,-0.508 v -0.719666 c 0,-0.338666 -0.254,-0.508 -0.677333,-0.508 h -1.523999 c -0.105833,0 -0.169333,-0.04233 -0.169333,-0.126999 v -0.4445 c 0,-0.08467 0.0635,-0.127 0.169333,-0.127 h 1.989665 v -0.359833 h -2.116665 c -0.423333,0 -0.677333,0.169333 -0.677333,0.508 v 0.402166 c 0,0.338666 0.254,0.507999 0.677333,0.507999 h 1.523999 c 0.105833,0 0.169333,0.04233 0.169333,0.127 v 0.762 c 0,0.08467 -0.0635,0.127 -0.169333,0.127 h -2.201332 z m 3.862914,0 h 0.635 v -2.793998 h -0.635 z m 1.534579,0 h 0.634999 v -2.031999 l 1.693332,2.031999 h 0.677333 v -2.793998 h -0.635 v 2.031998 l -1.693332,-2.031998 h -0.677332 z m 3.90525,-0.508 c 0,0.338666 0.254,0.508 0.677333,0.508 h 2.328331 v -1.735666 h -1.439332 v 0.359833 h 0.804333 v 1.016 h -1.566332 c -0.105834,0 -0.169333,-0.04233 -0.169333,-0.127 V 37.67642 c 0,-0.08467 0.0635,-0.127 0.169333,-0.127 h 2.031998 v -0.359833 h -2.158998 c -0.423333,0 -0.677333,0.169333 -0.677333,0.508 z"
       id="aliasing"
       aria-label="ALIASING" />
    <path
       d="m 11.175997,21.134501 h 2.328333 c 0.423333,0 0.677333,-0.169333 0.677333,-0.508 v -0.719667 c 0,-0.338666 -0.254,-0.508 -0.677333,-0.508 h -1.524 c -0.105833,0 -0.169333,-0.04233 -0.169333,-0.127 v -0.4445 c 0,-0.08467 0.0635,-0.127 0.169333,-0.127 h 1.989667 V 18.340501 H 11.85333 c -0.423333,0 -0.677333,0.169333 -0.677333,0.508 v 0.402167 c 0,0.338666 0.254,0.508 0.677333,0.508 h 1.524 c 0.105833,0 0.169333,0.04233 0.169333,0.127 v 0.762 c 0,0.08467 -0.0635,0.127 -0.169333,0.127 h -2.201333 z m 3.862917,0 h 0.635 v -1.375833 h 1.735667 v 1.375833 h 0.635 v -2.794 h -0.635 v 1.058333 h -1.735667 v -1.058333 h -0.635 z m 3.630086,0 h 0.635 l 0.389467,-0.783167 H 21.1582 l 0.389467,0.783167 h 0.635 l -1.397,-2.794 H 20.066 Z m 1.2065,-1.143 0.550334,-1.100667 0.550333,1.100667 z m 2.931585,1.143 h 0.635 v -1.143 h 1.693334 c 0.423333,0 0.677333,-0.169333 0.677333,-0.508 v -0.635 c 0,-0.338667 -0.254,-0.508 -0.677333,-0.508 h -2.328334 z m 0.635,-1.502833 v -0.931334 h 1.566334 c 0.105833,0 0.169333,0.04233 0.169333,0.127 v 0.677334 c 0,0.08467 -0.0635,0.127 -0.169333,0.127 z m 3.185584,1.502833 h 2.836334 v -0.359833 h -2.201334 v -1.016 h 1.989667 v -0.359834 h -1.989667 v -0.6985 h 2.201334 v -0.359833 h -2.836334 z"
       id="text8"
       style="font-size:16px;line-height:30.61px;font-family:Xolonium;-inkscape-font-specification:'Xolonium, Normal';letter-spacing:1px;white-space:pre;stroke-width:0.264999"
       aria-label="SHAPE"
       inkscape:label="shape" />
  </g>
  <g
     inkscape:groupmode="layer"
     id="layer2"
     inkscape:label="components"
     style="display:inline"
     sodipodi:insensitive="true">
    <ellipse
       style="display:none;fill:#ff0000;fill-rule:evenodd;stroke-width:0.264583"
       id="path8-6"
       cx="20.32"
       cy="28.10371"
       rx="2.9100001"
       ry="2.778125"
       inkscape:label="SHAPE" />
    <ellipse
       style="display:none;fill:#00ff00;fill-opacity:1;fill-rule:evenodd;stroke-width:0.264583"
       id="path8-2-6"
       cx="20.32"
       cy="46.952797"
       rx="2.9100001"
       ry="2.778125"
       inkscape:highlight-color="#00ff00"
       inkscape:label="SHAPECV" />
    <ellipse
       style="display:none;fill:#00ff00;fill-opacity:1;fill-rule:evenodd;stroke-width:0.264583"
       id="path8-60-0"
       cx="20.32"
       cy="83.362854"
       rx="2.9104166"
       ry="2.778125"
       inkscape:label="VOCT"
       inkscape:highlight-color="#00ff00" />
    <ellipse
       style="display:none;fill:#0000ff;fill-opacity:1;fill-rule:evenodd;stroke-width:0.264583"
       id="path8-60-66"
       cx="29.719997"
       cy="105.83332"
       rx="2.9104166"
       ry="2.778125"
       inkscape:label="NOISE"
       inkscape:highlight-color="#0000ff" />
    <ellipse
       style="display:none;fill:#0000ff;fill-opacity:1;fill-rule:evenodd;stroke-width:0.264583"
       id="ellipse8"
       cx="10.920002"
       cy="105.83332"
       rx="2.9104166"
       ry="2.778125"
       inkscape:label="AUDIO"
       inkscape:highlight-color="#0000ff" />
  </g>
  <metadata
     id="metadata1">
    <rdf:RDF>
      <cc:Work
         rdf:about="">
        <dc:publisher>
          <cc:Agent>
            <dc:title>WavsynModular</dc:title>
          </cc:Agent>
        </dc:publisher>
        <dc:creator>
          <cc:Agent>
            <dc:title>Erich Izdepsk</dc:title>
          </cc:Agent>
        </dc:creator>
      </cc:Work>
    </rdf:RDF>
  </metadata>
</svg>
