<?xml version="1.0" encoding="UTF-8" standalone="no"?>
<!-- Created with Inkscape (http://www.inkscape.org/) -->

<svg
   width="40.639999mm"
   height="128.5mm"
   viewBox="0 0 40.639999 128.5"
   version="1.1"
   id="svg1"
   inkscape:version="1.3.2 (091e20e, 2023-11-25, custom)"
   sodipodi:docname="Strange.svg"
   xmlns:inkscape="http://www.inkscape.org/namespaces/inkscape"
   xmlns:sodipodi="http://sodipodi.sourceforge.net/DTD/sodipodi-0.dtd"
   xmlns="http://www.w3.org/2000/svg"
   xmlns:svg="http://www.w3.org/2000/svg"
   xmlns:rdf="http://www.w3.org/1999/02/22-rdf-syntax-ns#"
   xmlns:cc="http://creativecommons.org/ns#"
   xmlns:dc="http://purl.org/dc/elements/1.1/">
  <sodipodi:namedview
     id="namedview1"
     pagecolor="#bb91ff"
     bordercolor="#000000"
     borderopacity="0.25"
     inkscape:showpageshadow="2"
     inkscape:pageopacity="0.0"
     inkscape:pagecheckerboard="true"
     inkscape:deskcolor="#d1d1d1"
     inkscape:document-units="mm"
     inkscape:zoom="1"
     inkscape:cx="81"
     inkscape:cy="255.5"
     inkscape:window-width="1421"
     inkscape:window-height="977"
     inkscape:window-x="636"
     inkscape:window-y="206"
     inkscape:window-maximized="0"
     inkscape:current-layer="layer1"
     showguides="true">
    <sodipodi:guide
       position="0,128.5"
       orientation="0,153.6"
       id="guide1"
       inkscape:locked="false" />
    <sodipodi:guide
       position="40.639999,128.5"
       orientation="485.66929,0"
       id="guide2"
       inkscape:locked="false" />
    <sodipodi:guide
       position="40.639999,0"
       orientation="0,-153.6"
       id="guide3"
       inkscape:locked="false" />
    <sodipodi:guide
       position="0,0"
       orientation="-485.66929,0"
       id="guide4"
       inkscape:locked="false" />
  </sodipodi:namedview>
  <defs
     id="defs1">
    <rect
       x="23"
       y="192"
       width="104"
       height="32"
       id="rect20" />
    <rect
       x="7"
       y="255"
       width="78"
       height="28"
       id="rect19" />
    <rect
       x="74"
       y="56"
       width="71"
       height="29"
       id="rect18" />
    <rect
       x="73"
       y="157"
       width="85"
       height="33"
       id="rect17" />
    <rect
       x="85"
       y="279"
       width="64"
       height="28"
       id="rect16" />
    <rect
       x="23"
       y="177"
       width="37.999999"
       height="33"
       id="rect15" />
    <rect
       x="5"
       y="277"
       width="61.999999"
       height="28.999999"
       id="rect12" />
    <rect
       x="69"
       y="82"
       width="88"
       height="54"
       id="rect2" />
    <rect
       x="36"
       y="104"
       width="66"
       height="32"
       id="rect11" />
    <rect
       x="104"
       y="360"
       width="101"
       height="29"
       id="rect8" />
    <rect
       x="100"
       y="359"
       width="90"
       height="31"
       id="rect6" />
    <rect
       x="138"
       y="25"
       width="179"
       height="39"
       id="rect3" />
    <rect
       x="42"
       y="361"
       width="92"
       height="63"
       id="rect10" />
    <rect
       x="57"
       y="271"
       width="99.000001"
       height="71.000001"
       id="rect9" />
    <rect
       x="9"
       y="61"
       width="139"
       height="24"
       id="rect7" />
    <rect
       x="17.225366"
       y="29.665908"
       width="128.70667"
       height="54.407697"
       id="rect5" />
    <rect
       x="25.838049"
       y="44.977345"
       width="100.4813"
       height="34.450732"
       id="rect4" />
    <rect
       x="5"
       y="277"
       width="61.999999"
       height="28.999999"
       id="rect13" />
  </defs>
  <g
     inkscape:groupmode="layer"
     id="layer3"
     inkscape:label="background"
     sodipodi:insensitive="true">
    <rect
       style="fill:#e5e5e5;fill-opacity:1;fill-rule:evenodd;stroke-width:0.264583"
       id="panel"
       width="40.639999"
       height="128.5"
       x="0"
       y="8.437695e-15" />
    <rect
       style="display:inline;fill:#000000;stroke-width:0.264583"
       id="rect1"
       width="10.31875"
       height="10.318752"
       x="26.140844"
       y="109.30021" />
    <rect
       style="display:inline;fill:#000000;stroke-width:0.264583"
       id="rect1-1"
       width="10.31875"
       height="10.318752"
       x="4.7095904"
       y="109.30021" />
    <rect
       style="display:inline;fill:#000000;stroke-width:0.264583"
       id="rect14"
       width="10.31875"
       height="10.318752"
       x="26.140844"
       y="88.774834" />
  </g>
  <g
     inkscape:label="text"
     inkscape:groupmode="layer"
     id="layer1"
     sodipodi:insensitive="true">
    <path
       d="M 75.2,76.105 H 84 c 1.6,0 2.56,-0.64 2.56,-1.92 v -2.32 c 0,-0.96 -0.72,-1.52 -1.36,-1.68 0.64,-0.24 1.2,-0.72 1.2,-1.68 v -1.04 c 0,-1.28 -0.96,-1.92 -2.56,-1.92 H 75.2 Z m 2.4,-1.36 v -3.84 h 5.92 c 0.4,0 0.64,0.16 0.64,0.48 v 2.88 c 0,0.32 -0.24,0.48 -0.64,0.48 z m 0,-5.2 v -2.64 h 5.76 c 0.4,0 0.64,0.16 0.64,0.48 v 1.68 c 0,0.32 -0.24,0.48 -0.64,0.48 z m 11.200006,6.56 h 2.4 v -10.56 h -2.4 z m 3.759988,0 h 2.4 l 1.472,-2.96 h 5.535996 l 1.472,2.96 h 2.4 l -5.28,-10.56 h -2.719996 z m 4.56,-4.32 2.08,-4.16 2.079996,4.16 z m 9.920006,4.32 h 8.8 c 1.6,0 2.56,-0.64 2.56,-1.92 v -2.72 c 0,-1.28 -0.96,-1.92 -2.56,-1.92 h -5.76 c -0.4,0 -0.64,-0.16 -0.64,-0.48 v -1.68 c 0,-0.32 0.24,-0.48 0.64,-0.48 h 7.52 v -1.36 h -8 c -1.6,0 -2.56,0.64 -2.56,1.92 v 1.52 c 0,1.28 0.96,1.92 2.56,1.92 h 5.76 c 0.4,0 0.64,0.16 0.64,0.48 v 2.88 c 0,0.32 -0.24,0.48 -0.64,0.48 h -8.32 z"
       id="bias"
       style="font-size:16px;line-height:30.61px;font-family:Xolonium;-inkscape-font-specification:'Xolonium, Normal';letter-spacing:0px;white-space:pre"
       aria-label="BIAS"
       transform="matrix(0.26458333,0,0,0.26458333,6.6145833,-0.52887541)" />
    <path
       style="font-size:18.6667px;line-height:35.7143px;font-family:Xolonium;-inkscape-font-specification:'Xolonium, Normal';letter-spacing:4px;white-space:pre;stroke-width:0.264583"
       d="m 2.9456657,11.764467 h 2.7163924 c 0.4938897,0 0.7902231,-0.197556 0.7902231,-0.592668 v -0.839612 c 0,-0.3951121 -0.2963334,-0.592668 -0.7902231,-0.592668 H 3.8840555 C 3.7605824,9.739519 3.686499,9.69013 3.686499,9.5913521 V 9.0727677 c 0,-0.098778 0.074083,-0.148167 0.1975565,-0.148167 H 6.2053376 V 8.5047946 H 3.7358888 c -0.4938898,0 -0.7902231,0.1975559 -0.7902231,0.5926677 v 0.4691951 c 0,0.3951118 0.2963333,0.5926676 0.7902231,0.5926676 h 1.7780026 c 0.1234731,0 0.1975564,0.04939 0.1975564,0.148167 v 0.889002 c 0,0.09878 -0.074083,0.148167 -0.1975564,0.148167 H 2.9456657 Z M 7.8069478,8.9246007 H 9.387394 v 2.8398663 h 0.740833 V 8.9246007 h 1.580449 V 8.5047946 H 7.8069478 Z m 5.4539512,2.8398663 h 0.740836 v -1.43228 h 1.037167 l 1.061863,1.43228 h 0.814919 l -1.061863,-1.43228 h 0.123473 c 0.49389,0 0.790223,-0.197556 0.790223,-0.592668 V 9.0974623 c 0,-0.3951118 -0.296333,-0.5926677 -0.790223,-0.5926677 H 13.260899 Z M 14.001735,9.9123803 V 8.9246007 h 1.827393 c 0.12347,0 0.197553,0.049389 0.197553,0.148167 v 0.6914456 c 0,0.098778 -0.07408,0.148167 -0.197553,0.148167 z m 4.194535,1.8520867 h 0.740833 l 0.45438,-0.913696 h 1.708856 l 0.45438,0.913696 h 0.740836 L 20.665719,8.5047946 h -0.839613 z m 1.407583,-1.333502 0.642059,-1.2841137 0.642057,1.2841137 z m 4.169844,1.333502 h 0.740834 V 9.3937961 l 1.975559,2.3706709 h 0.790223 V 8.5047946 H 26.539479 V 10.875465 L 24.56392,8.5047946 h -0.790223 z m 5.305788,-0.592668 c 0,0.395112 0.296333,0.592668 0.790223,0.592668 H 32.5861 V 9.739519 h -1.679226 v 0.419806 h 0.938393 v 1.185336 h -1.827393 c -0.123473,0 -0.197556,-0.04939 -0.197556,-0.148167 V 9.0727677 c 0,-0.098778 0.07408,-0.148167 0.197556,-0.148167 h 2.37067 V 8.5047946 h -2.518836 c -0.49389,0 -0.790223,0.1975559 -0.790223,0.5926677 z m 5.305787,0.592668 h 3.309062 v -0.419806 h -2.568226 v -1.185336 h 2.321279 V 9.739519 H 35.126108 V 8.9246007 h 2.568226 V 8.5047946 h -3.309062 z"
       id="strange"
       aria-label="STRANGE" />
    <path
       d="m 2.2754105,106.479 c 0,0.33867 0.254,0.508 0.6773337,0.508 h 1.6509991 c 0.4233327,0 0.6773324,-0.16933 0.6773324,-0.508 v -1.778 c 0,-0.33867 -0.2539997,-0.508 -0.6773324,-0.508 H 2.9527442 c -0.4233337,0 -0.6773337,0.16933 -0.6773337,0.508 z m 0.6349997,0.0212 v -1.82033 c 0,-0.0847 0.0635,-0.127 0.169334,-0.127 h 1.3969991 c 0.105833,0 0.169333,0.0423 0.169333,0.127 v 1.82033 c 0,0.0847 -0.0635,0.127 -0.169333,0.127 H 3.0797442 c -0.105834,0 -0.169334,-0.0423 -0.169334,-0.127 z m 3.0056682,-0.0212 c 0,0.33867 0.254,0.508 0.6773327,0.508 h 1.6509991 c 0.4233327,0 0.6773327,-0.16933 0.6773327,-0.508 v -2.286 H 8.2867432 v 2.30717 c 0,0.0847 -0.0635,0.127 -0.169333,0.127 H 6.7204111 c -0.105833,0 -0.169333,-0.0423 -0.169333,-0.127 V 104.193 H 5.9160784 Z m 3.4290002,-1.92617 h 1.3546664 v 2.43417 h 0.635 v -2.43417 h 1.354666 V 104.193 H 9.3450786 Z m 4.2544994,0 h 0.846667 v 2.43417 h 0.635 v -2.794 h -1.481667 z"
       id="OUT1"
       style="font-size:16px;line-height:30.6122px;font-family:Xolonium;-inkscape-font-specification:'Xolonium, Normal';letter-spacing:0px;white-space:pre;stroke-width:0.264583"
       aria-label="OUT1" />
    <path
       d="m 24.585087,106.479 c 0,0.33867 0.254,0.508 0.677334,0.508 h 1.651 c 0.423333,0 0.677333,-0.16933 0.677333,-0.508 v -1.778 c 0,-0.33867 -0.254,-0.508 -0.677333,-0.508 h -1.651 c -0.423334,0 -0.677334,0.16933 -0.677334,0.508 z m 0.635,0.0212 v -1.82033 c 0,-0.0847 0.0635,-0.127 0.169334,-0.127 h 1.397 c 0.105833,0 0.169333,0.0423 0.169333,0.127 v 1.82033 c 0,0.0847 -0.0635,0.127 -0.169333,0.127 h -1.397 c -0.105834,0 -0.169334,-0.0423 -0.169334,-0.127 z m 3.00567,-0.0212 c 0,0.33867 0.254,0.508 0.677333,0.508 h 1.651 c 0.423333,0 0.677333,-0.16933 0.677333,-0.508 v -2.286 h -0.635 v 2.30717 c 0,0.0847 -0.0635,0.127 -0.169333,0.127 h -1.397 c -0.105833,0 -0.169333,-0.0423 -0.169333,-0.127 V 104.193 h -0.635 z m 3.429002,-1.92617 h 1.354667 v 2.43417 h 0.635 v -2.43417 h 1.354666 V 104.193 h -3.344333 z m 3.704167,2.43417 h 2.921 v -0.35983 h -2.286 v -0.889 c 0,-0.0847 0.0635,-0.127 0.169333,-0.127 h 1.439333 c 0.423334,0 0.677334,-0.16934 0.677334,-0.508 V 104.701 c 0,-0.33867 -0.254,-0.508 -0.677334,-0.508 h -2.032 v 0.35983 h 1.905 c 0.105834,0 0.169334,0.0423 0.169334,0.127 v 0.4445 c 0,0.0847 -0.0635,0.127 -0.169334,0.127 h -1.439333 c -0.423333,0 -0.677333,0.16934 -0.677333,0.508 z"
       id="OUT2"
       style="font-size:16px;line-height:30.6122px;font-family:Xolonium;-inkscape-font-specification:'Xolonium, Normal';letter-spacing:0px;white-space:pre;stroke-width:0.264583"
       aria-label="OUT2" />
    <path
       d="m 2.9456657,19.607239 h 0.635 v -1.227667 h 0.889 l 0.9101666,1.227667 h 0.6985 L 5.1681657,18.379572 H 5.273999 c 0.4233333,0 0.6773333,-0.169333 0.6773333,-0.508 v -0.550333 c 0,-0.338667 -0.254,-0.508 -0.6773333,-0.508 H 2.9456657 Z m 0.635,-1.5875 V 17.173072 H 5.146999 c 0.1058333,0 0.1693333,0.04233 0.1693333,0.127 v 0.592667 c 0,0.08467 -0.0635,0.127 -0.1693333,0.127 z m 2.6881682,1.5875 h 0.635 l 0.3894667,-0.783167 h 1.4647333 l 0.3894667,0.783167 h 0.6349999 l -1.3969999,-2.794 H 7.6658339 Z m 1.2065,-1.143 0.5503333,-1.100667 0.5503334,1.100667 z m 1.9473315,-1.291167 h 1.3546666 v 2.434167 h 0.635 v -2.434167 h 1.354667 V 16.813239 H 9.4226654 Z m 3.7676676,2.434167 h 2.836333 v -0.359834 h -2.201333 v -1.016 h 1.989666 v -0.359833 h -1.989666 v -0.6985 h 2.201333 v -0.359833 h -2.836333 z"
       id="RATE"
       style="font-size:16px;line-height:30.6122px;font-family:Xolonium;-inkscape-font-specification:'Xolonium, Normal';letter-spacing:0px;white-space:pre;stroke-width:0.264583"
       aria-label="RATE" />
    <path
       style="font-size:16px;line-height:30.61px;font-family:Xolonium;-inkscape-font-specification:'Xolonium, Normal';letter-spacing:0px;white-space:pre;stroke-width:0.264583"
       d="m 25.114167,85.286 c 0,0.338666 0.254,0.508 0.677333,0.508 h 2.328334 V 84.058333 H 26.6805 v 0.359833 h 0.804334 v 1.016 H 25.9185 c -0.105833,0 -0.169333,-0.04233 -0.169333,-0.127 v -1.820333 c 0,-0.08467 0.0635,-0.127 0.169333,-0.127 h 2.032 V 83 h -2.159 c -0.423333,0 -0.677333,0.169333 -0.677333,0.508 z m 3.365503,0.508 h 0.635 l 0.389466,-0.783167 H 30.96887 L 31.358336,85.794 h 0.635 L 30.596336,83 H 29.87667 Z m 1.2065,-1.143 0.550333,-1.100667 0.550333,1.100667 z m 1.947331,-1.291167 h 1.354666 V 85.794 h 0.635 v -2.434167 h 1.354667 V 83 H 31.633501 Z M 35.401168,85.794 h 2.836333 v -0.359834 h -2.201333 v -1.016 h 1.989667 v -0.359833 h -1.989667 v -0.6985 h 2.201333 V 83 h -2.836333 z"
       id="gateout"
       aria-label="GATE" />
    <path
       style="font-size:16px;line-height:30.6122px;font-family:Xolonium;-inkscape-font-specification:'Xolonium, Normal';letter-spacing:0px;white-space:pre;stroke-width:0.264583"
       d="m 2.275,40.286004 c 0,0.338666 0.254,0.508 0.6773334,0.508 H 5.2806667 V 39.058337 H 3.8413334 v 0.359833 h 0.8043333 v 1.016 H 3.0793334 C 2.9735,40.43417 2.91,40.39184 2.91,40.30717 v -1.820333 c 0,-0.08467 0.0635,-0.127 0.1693334,-0.127 H 5.1113333 V 38.000004 H 2.9523334 C 2.529,38.000004 2.275,38.169337 2.275,38.508004 Z m 3.3655026,0.508 h 0.635 l 0.3894667,-0.783167 h 1.4647333 l 0.3894667,0.783167 h 0.635 l -1.397,-2.794 H 7.0375026 Z m 1.2065,-1.143 0.5503334,-1.100667 0.5503333,1.100667 z m 1.9473312,-1.291167 h 1.3546672 v 2.434167 H 10.784 v -2.434167 h 1.354667 V 38.000004 H 8.7943338 Z m 3.7676672,2.434167 h 2.836333 V 40.43417 h -2.201333 v -1.016 h 1.989666 v -0.359833 h -1.989666 v -0.6985 h 2.201333 v -0.359833 h -2.836333 z"
       id="gate_duration"
       aria-label="GATE" />
    <path
       d="m 24.055833,40.794 h 0.635 V 38.846666 L 25.6645,40.794 h 0.592667 l 0.973666,-1.947334 V 40.794 h 0.635 V 38 H 27.0615 L 25.960833,40.201333 24.860167,38 h -0.804334 z m 4.444997,-0.508 c 0,0.338666 0.254,0.508 0.677334,0.508 h 1.651 c 0.423333,0 0.677333,-0.169334 0.677333,-0.508 v -1.778 c 0,-0.338667 -0.254,-0.508 -0.677333,-0.508 h -1.651 c -0.423334,0 -0.677334,0.169333 -0.677334,0.508 z m 0.635,0.02117 v -1.820333 c 0,-0.08467 0.0635,-0.127 0.169334,-0.127 h 1.397 c 0.105833,0 0.169333,0.04233 0.169333,0.127 v 1.820333 c 0,0.08467 -0.0635,0.127 -0.169333,0.127 h -1.397 c -0.105834,0 -0.169334,-0.04233 -0.169334,-0.127 z m 3.00567,0.486834 h 1.651 c 0.846667,0 1.354667,-0.338667 1.354667,-1.016 v -0.762 c 0,-0.677334 -0.508,-1.016 -1.354667,-1.016 h -1.651 z m 0.635,-0.359834 v -2.074333 h 0.889 c 0.529167,0 0.846667,0.211667 0.846667,0.635 v 0.804333 c 0,0.423334 -0.3175,0.635 -0.846667,0.635 z m 2.963333,0.359834 h 2.836334 V 40.43417 h -2.201334 v -1.016 H 38.3645 v -0.359833 h -1.989667 v -0.6985 h 2.201334 v -0.359833 h -2.836334 z"
       id="mode"
       style="font-size:16px;line-height:30.61px;font-family:Xolonium;-inkscape-font-specification:'Xolonium, Normal';letter-spacing:0px;white-space:pre;stroke-width:0.264583"
       aria-label="MODE" />
    <path
       d="m 2.275,85.286 c 0,0.338667 0.254,0.508 0.6773333,0.508 h 2.159 v -0.359833 h -2.032 C 2.9735,85.434167 2.91,85.391833 2.91,85.307167 v -1.820334 c 0,-0.08467 0.0635,-0.127 0.1693333,-0.127 h 2.032 V 83 h -2.159 C 2.529,83 2.275,83.169333 2.275,83.508 Z m 3.3866634,0.508 H 8.4979967 V 85.434167 H 6.2966634 V 83 h -0.635 z m 3.2173341,-0.508 c 0,0.338667 0.254,0.508 0.6773334,0.508 h 1.6510001 c 0.423333,0 0.677333,-0.169333 0.677333,-0.508 v -1.778 c 0,-0.338667 -0.254,-0.508 -0.677333,-0.508 H 9.5563309 c -0.4233334,0 -0.6773334,0.169333 -0.6773334,0.508 z m 0.635,0.02117 v -1.820334 c 0,-0.08467 0.0635,-0.127 0.1693334,-0.127 h 1.3970001 c 0.105833,0 0.169333,0.04233 0.169333,0.127 v 1.820334 c 0,0.08467 -0.0635,0.127 -0.169333,0.127 H 9.6833309 c -0.1058334,0 -0.1693334,-0.04233 -0.1693334,-0.127 z M 12.519667,85.286 c 0,0.338667 0.254,0.508 0.677333,0.508 h 2.159 v -0.359833 h -2.032 c -0.105833,0 -0.169333,-0.04233 -0.169333,-0.127 v -1.820334 c 0,-0.08467 0.0635,-0.127 0.169333,-0.127 h 2.032 V 83 h -2.159 c -0.423333,0 -0.677333,0.169333 -0.677333,0.508 z m 3.386663,0.508 h 0.635 v -0.550333 l 0.529167,-0.529167 1.0795,1.0795 h 0.762 l -1.4605,-1.4605 1.3335,-1.3335 h -0.762 L 16.54133,84.481667 V 83 h -0.635 z"
       id="clock"
       style="font-size:16px;line-height:30.61px;font-family:Xolonium;-inkscape-font-specification:'Xolonium, Normal';letter-spacing:0px;white-space:pre;stroke-width:0.264583"
       aria-label="CLOCK" />
    <path
       d="m 13.631336,60.819 h 2.328333 c 0.423334,0 0.677334,-0.169333 0.677334,-0.508 v -0.719667 c 0,-0.338666 -0.254,-0.508 -0.677334,-0.508 h -1.524 c -0.105833,0 -0.169333,-0.04233 -0.169333,-0.127 v -0.4445 c 0,-0.08467 0.0635,-0.127 0.169333,-0.127 h 1.989667 V 58.025 h -2.116667 c -0.423333,0 -0.677333,0.169333 -0.677333,0.508 v 0.402167 c 0,0.338666 0.254,0.508 0.677333,0.508 h 1.524 c 0.105834,0 0.169334,0.04233 0.169334,0.127 v 0.762 c 0,0.08467 -0.0635,0.127 -0.169334,0.127 h -2.201333 z m 3.598334,0 h 2.836333 V 60.459167 H 17.86467 v -1.016 h 1.989667 V 59.083333 H 17.86467 v -0.6985 h 2.201333 V 58.025 H 17.22967 Z m 3.386663,0 h 2.836334 v -0.359833 h -2.201334 v -1.016 H 23.241 v -0.359834 h -1.989667 v -0.6985 h 2.201334 V 58.025 h -2.836334 z m 3.386664,0 h 1.651 c 0.846666,0 1.354666,-0.338667 1.354666,-1.016 v -0.762 c 0,-0.677333 -0.508,-1.016 -1.354666,-1.016 h -1.651 z m 0.635,-0.359833 v -2.074334 h 0.889 c 0.529166,0 0.846666,0.211667 0.846666,0.635 v 0.804334 c 0,0.423333 -0.3175,0.635 -0.846666,0.635 z"
       id="seed"
       style="font-size:16px;line-height:30.61px;font-family:Xolonium;-inkscape-font-specification:'Xolonium, Normal';letter-spacing:0px;white-space:pre;stroke-width:0.264583"
       aria-label="SEED" />
    <path
       d="m 6.8474997,122 0.931328,2.794 h 0.825495 l 0.719661,-2.159 0.7196633,2.159 h 0.825495 L 11.800469,122 H 11.165473 L 10.424645,124.2225 9.6838157,122 H 8.9641537 L 8.2233247,124.2225 7.4824957,122 Z m 5.7573003,2.794 h 0.634996 l 0.389464,-0.78317 h 1.464724 l 0.389465,0.78317 h 0.634996 L 14.721454,122 h -0.719663 z m 1.206492,-1.143 0.55033,-1.10067 0.55033,1.10067 z m 2.942149,-1.651 1.396991,2.794 h 0.719662 L 20.267085,122 h -0.656162 l -1.10066,2.20133 L 17.409603,122 Z m 4.889469,2.794 h 2.328319 c 0.42333,0 0.677328,-0.16933 0.677328,-0.508 v -0.71967 c 0,-0.33866 -0.253998,-0.508 -0.677328,-0.508 h -1.523991 c -0.105832,0 -0.169332,-0.0423 -0.169332,-0.127 v -0.4445 c 0,-0.0847 0.0635,-0.127 0.169332,-0.127 h 1.989655 V 122 h -2.116654 c -0.42333,0 -0.677329,0.16933 -0.677329,0.508 v 0.40217 c 0,0.33866 0.253999,0.508 0.677329,0.508 h 1.52399 c 0.105833,0 0.169332,0.0423 0.169332,0.127 v 0.762 c 0,0.0847 -0.0635,0.127 -0.169332,0.127 H 21.64291 Z m 4.212138,-2.794 1.439324,1.69333 v 1.10067 h 0.634996 v -1.10067 L 29.368692,122 H 28.64903 L 27.61187,123.22767 26.574709,122 Z m 4.931805,2.794 h 0.634996 v -2.032 l 1.693322,2.032 H 33.7925 V 122 h -0.634996 v 2.032 L 31.464182,122 h -0.677329 z"
       id="logo"
       style="font-size:16px;line-height:30.61px;font-family:Xolonium;-inkscape-font-specification:'Xolonium, Normal';letter-spacing:4px;white-space:pre;shape-padding:7;display:inline;stroke-width:0.264998"
       aria-label="WAVSYN" />
  </g>
  <g
     inkscape:groupmode="layer"
     id="layer2"
     inkscape:label="components"
     style="display:none"
     sodipodi:insensitive="true">
    <ellipse
       style="display:none;fill:#ff0000;fill-opacity:1;stroke-width:0.264583"
       id="path8"
       cx="9.2960005"
       cy="26.19375"
       rx="2.9100001"
       ry="2.6458333"
       inkscape:label="RATE" />
    <ellipse
       style="fill:#0000ff;fill-opacity:1;stroke-width:0.264583"
       id="path1"
       cx="9.8689651"
       cy="114.32716"
       rx="3.3072915"
       ry="3.7041667"
       inkscape:highlight-color="#0000ff"
       inkscape:label="CVOUT1" />
    <ellipse
       style="fill:#0000ff;fill-opacity:1;stroke-width:0.264583"
       id="ellipse1"
       cx="31.169292"
       cy="114.32716"
       rx="3.3069999"
       ry="3.7041667"
       inkscape:highlight-color="#0000ff"
       inkscape:label="CVOUT2" />
    <ellipse
       style="display:none;fill:#ff0000;fill-opacity:1;stroke-width:0.264583"
       id="ellipse3"
       cx="31.096001"
       cy="26.19375"
       rx="2.9100001"
       ry="2.6458333"
       inkscape:label="BIAS" />
    <ellipse
       style="fill:#00ff00;fill-opacity:1;stroke-width:0.264583"
       id="ellipse4"
       cx="9.8689651"
       cy="93.902"
       rx="3.3072915"
       ry="3.7041667"
       inkscape:highlight-color="#00ff00"
       inkscape:label="CLOCK" />
    <ellipse
       style="fill:#0000ff;fill-opacity:1;stroke-width:0.264583"
       id="ellipse5"
       cx="31.169584"
       cy="93.902"
       rx="3.3072915"
       ry="3.7041667"
       inkscape:highlight-color="#0000ff"
       inkscape:label="GATEOUT" />
    <ellipse
       style="display:none;fill:#ff0000;fill-opacity:1;stroke-width:0.264583"
       id="ellipse16"
       cx="9.2960005"
       cy="47.201836"
       rx="2.9100001"
       ry="2.6458333"
       inkscape:label="GATE" />
    <ellipse
       style="display:none;fill:#ff0000;fill-opacity:1;stroke-width:0.264583"
       id="ellipse17"
       cx="30.771999"
       cy="47.201836"
       rx="2.9100001"
       ry="2.6458333"
       inkscape:label="MODE" />
    <ellipse
       style="fill:#ff0000;fill-opacity:1;stroke-width:0.21927"
       id="SEED"
       cx="20.32"
       cy="68.68528"
       rx="4.0949998"
       ry="4.1269999"
       inkscape:label="SEED" />
  </g>
  <metadata
     id="metadata1">
    <rdf:RDF>
      <cc:Work
         rdf:about="">
        <dc:publisher>
          <cc:Agent>
            <dc:title>WavsynModular</dc:title>
          </cc:Agent>
        </dc:publisher>
        <dc:creator>
          <cc:Agent>
            <dc:title>Erich Izdepsk</dc:title>
          </cc:Agent>
        </dc:creator>
      </cc:Work>
    </rdf:RDF>
  </metadata>
</svg>
