<?xml version="1.0" encoding="UTF-8" standalone="no"?>
<!-- Created with Inkscape (http://www.inkscape.org/) -->

<svg
   width="40.639999mm"
   height="128.5mm"
   viewBox="0 0 40.639999 128.5"
   version="1.1"
   id="svg1"
   inkscape:version="1.3.2 (091e20e, 2023-11-25, custom)"
   sodipodi:docname="Strange.svg"
   xmlns:inkscape="http://www.inkscape.org/namespaces/inkscape"
   xmlns:sodipodi="http://sodipodi.sourceforge.net/DTD/sodipodi-0.dtd"
   xmlns="http://www.w3.org/2000/svg"
   xmlns:svg="http://www.w3.org/2000/svg"
   xmlns:rdf="http://www.w3.org/1999/02/22-rdf-syntax-ns#"
   xmlns:cc="http://creativecommons.org/ns#"
   xmlns:dc="http://purl.org/dc/elements/1.1/">
  <sodipodi:namedview
     id="namedview1"
     pagecolor="#bb91ff"
     bordercolor="#000000"
     borderopacity="0.25"
     inkscape:showpageshadow="2"
     inkscape:pageopacity="0.0"
     inkscape:pagecheckerboard="true"
     inkscape:deskcolor="#d1d1d1"
     inkscape:document-units="mm"
     inkscape:zoom="1"
     inkscape:cx="81.5"
     inkscape:cy="255.5"
     inkscape:window-width="1421"
     inkscape:window-height="977"
     inkscape:window-x="1093"
     inkscape:window-y="219"
     inkscape:window-maximized="0"
     inkscape:current-layer="layer1"
     showguides="true">
    <sodipodi:guide
       position="0,128.5"
       orientation="0,153.6"
       id="guide1"
       inkscape:locked="false" />
    <sodipodi:guide
       position="40.639999,128.5"
       orientation="485.66929,0"
       id="guide2"
       inkscape:locked="false" />
    <sodipodi:guide
       position="40.639999,0"
       orientation="0,-153.6"
       id="guide3"
       inkscape:locked="false" />
    <sodipodi:guide
       position="0,0"
       orientation="-485.66929,0"
       id="guide4"
       inkscape:locked="false" />
  </sodipodi:namedview>
  <defs
     id="defs1">
    <rect
       x="36"
       y="104"
       width="66"
       height="32"
       id="rect11" />
    <rect
       x="104"
       y="360"
       width="101"
       height="29"
       id="rect8" />
    <rect
       x="100"
       y="359"
       width="90"
       height="31"
       id="rect6" />
    <rect
       x="138"
       y="25"
       width="179"
       height="39"
       id="rect3" />
    <rect
       x="42"
       y="361"
       width="92"
       height="63"
       id="rect10" />
    <rect
       x="57"
       y="271"
       width="99.000001"
       height="71.000001"
       id="rect9" />
    <rect
       x="9"
       y="61"
       width="139"
       height="24"
       id="rect7" />
    <rect
       x="17.225366"
       y="29.665908"
       width="128.70667"
       height="54.407697"
       id="rect5" />
    <rect
       x="25.838049"
       y="44.977345"
       width="100.4813"
       height="34.450732"
       id="rect4" />
  </defs>
  <g
     inkscape:groupmode="layer"
     id="layer3"
     inkscape:label="background">
    <rect
       style="fill:#e5e5e5;fill-opacity:1;fill-rule:evenodd;stroke-width:0.264583"
       id="rect2"
       width="40.639999"
       height="128.5"
       x="0"
       y="8.437695e-15" />
    <rect
       style="display:inline;fill:#000000;stroke-width:0.264583"
       id="rect1"
       width="10.31875"
       height="10.318752"
       x="15.822085"
       y="100.80624"
       sodipodi:insensitive="true" />
    <rect
       style="display:inline;fill:#000000;stroke-width:0.264583"
       id="rect1-1"
       width="10.31875"
       height="10.318752"
       x="15.822085"
       y="79.375"
       sodipodi:insensitive="true" />
  </g>
  <g
     inkscape:label="text"
     inkscape:groupmode="layer"
     id="layer1">
    <path
       style="font-size:18.6667px;line-height:35.7143px;font-family:Xolonium;-inkscape-font-specification:'Xolonium, Normal';letter-spacing:4px;white-space:pre;stroke-width:0.264583"
       d="m 2.9456657,11.764467 h 2.7163924 c 0.4938897,0 0.7902231,-0.197556 0.7902231,-0.592668 v -0.839612 c 0,-0.3951121 -0.2963334,-0.592668 -0.7902231,-0.592668 H 3.8840555 C 3.7605824,9.739519 3.686499,9.69013 3.686499,9.5913521 V 9.0727677 c 0,-0.098778 0.074083,-0.148167 0.1975565,-0.148167 H 6.2053376 V 8.5047946 H 3.7358888 c -0.4938898,0 -0.7902231,0.1975559 -0.7902231,0.5926677 v 0.4691951 c 0,0.3951118 0.2963333,0.5926676 0.7902231,0.5926676 h 1.7780026 c 0.1234731,0 0.1975564,0.04939 0.1975564,0.148167 v 0.889002 c 0,0.09878 -0.074083,0.148167 -0.1975564,0.148167 H 2.9456657 Z M 7.8069478,8.9246007 H 9.387394 v 2.8398663 h 0.740833 V 8.9246007 h 1.580449 V 8.5047946 H 7.8069478 Z m 5.4539512,2.8398663 h 0.740836 v -1.43228 h 1.037167 l 1.061863,1.43228 h 0.814919 l -1.061863,-1.43228 h 0.123473 c 0.49389,0 0.790223,-0.197556 0.790223,-0.592668 V 9.0974623 c 0,-0.3951118 -0.296333,-0.5926677 -0.790223,-0.5926677 H 13.260899 Z M 14.001735,9.9123803 V 8.9246007 h 1.827393 c 0.12347,0 0.197553,0.049389 0.197553,0.148167 v 0.6914456 c 0,0.098778 -0.07408,0.148167 -0.197553,0.148167 z m 4.194535,1.8520867 h 0.740833 l 0.45438,-0.913696 h 1.708856 l 0.45438,0.913696 h 0.740836 L 20.665719,8.5047946 h -0.839613 z m 1.407583,-1.333502 0.642059,-1.2841137 0.642057,1.2841137 z m 4.169844,1.333502 h 0.740834 V 9.3937961 l 1.975559,2.3706709 h 0.790223 V 8.5047946 H 26.539479 V 10.875465 L 24.56392,8.5047946 h -0.790223 z m 5.305788,-0.592668 c 0,0.395112 0.296333,0.592668 0.790223,0.592668 H 32.5861 V 9.739519 h -1.679226 v 0.419806 h 0.938393 v 1.185336 h -1.827393 c -0.123473,0 -0.197556,-0.04939 -0.197556,-0.148167 V 9.0727677 c 0,-0.098778 0.07408,-0.148167 0.197556,-0.148167 h 2.37067 V 8.5047946 h -2.518836 c -0.49389,0 -0.790223,0.1975559 -0.790223,0.5926677 z m 5.305787,0.592668 h 3.309062 v -0.419806 h -2.568226 v -1.185336 h 2.321279 V 9.739519 H 35.126108 V 8.9246007 h 2.568226 V 8.5047946 h -3.309062 z"
       id="text1"
       aria-label="STRANGE"
       sodipodi:insensitive="true" />
    <path
       d="m 101.2,377.1861 c 0,1.28 0.96,1.92 2.56,1.92 H 110 c 1.6,0 2.56,-0.64 2.56,-1.92 v -6.72 c 0,-1.28 -0.96,-1.92 -2.56,-1.92 h -6.24 c -1.6,0 -2.56,0.64 -2.56,1.92 z m 2.4,0.08 v -6.88 c 0,-0.32 0.24,-0.48 0.64,-0.48 h 5.28 c 0.4,0 0.64,0.16 0.64,0.48 v 6.88 c 0,0.32 -0.24,0.48 -0.64,0.48 h -5.28 c -0.4,0 -0.64,-0.16 -0.64,-0.48 z m 11.36001,-0.08 c 0,1.28 0.96,1.92 2.56,1.92 h 6.24 c 1.6,0 2.56,-0.64 2.56,-1.92 v -8.64 h -2.4 v 8.72 c 0,0.32 -0.24,0.48 -0.64,0.48 h -5.28 c -0.4,0 -0.64,-0.16 -0.64,-0.48 v -8.72 h -2.4 z m 12.96001,-7.28 h 5.12 v 9.2 h 2.4 v -9.2 h 5.12 v -1.36 h -12.64 z m 16.08,0 h 3.2 v 9.2 h 2.4 v -10.56 h -5.6 z"
       id="text6"
       style="font-size:16px;line-height:30.6122px;font-family:Xolonium;-inkscape-font-specification:'Xolonium, Normal';letter-spacing:0px;white-space:pre"
       transform="matrix(0.26458333,0,0,0.26458333,-12.858753,-23.243365)"
       aria-label="OUT1"
       sodipodi:insensitive="true" />
    <path
       d="m 105.2,378.1861 c 0,1.28 0.96,1.92 2.56,1.92 H 114 c 1.6,0 2.56,-0.64 2.56,-1.92 v -6.72 c 0,-1.28 -0.96,-1.92 -2.56,-1.92 h -6.24 c -1.6,0 -2.56,0.64 -2.56,1.92 z m 2.4,0.08 v -6.88 c 0,-0.32 0.24,-0.48 0.64,-0.48 h 5.28 c 0.4,0 0.64,0.16 0.64,0.48 v 6.88 c 0,0.32 -0.24,0.48 -0.64,0.48 h -5.28 c -0.4,0 -0.64,-0.16 -0.64,-0.48 z m 11.36001,-0.08 c 0,1.28 0.96,1.92 2.56,1.92 h 6.24 c 1.6,0 2.56,-0.64 2.56,-1.92 v -8.64 h -2.4 v 8.72 c 0,0.32 -0.24,0.48 -0.64,0.48 h -5.28 c -0.4,0 -0.64,-0.16 -0.64,-0.48 v -8.72 h -2.4 z m 12.96001,-7.28 h 5.12 v 9.2 h 2.4 v -9.2 h 5.12 v -1.36 h -12.64 z m 14,9.2 h 11.04 v -1.36 h -8.64 v -3.36 c 0,-0.32 0.24,-0.48 0.64,-0.48 h 5.44 c 1.6,0 2.56,-0.64 2.56,-1.92 v -1.52 c 0,-1.28 -0.96,-1.92 -2.56,-1.92 h -7.68 v 1.36 h 7.2 c 0.4,0 0.64,0.16 0.64,0.48 v 1.68 c 0,0.32 -0.24,0.48 -0.64,0.48 h -5.44 c -1.6,0 -2.56,0.64 -2.56,1.92 z"
       id="text7"
       style="font-size:16px;line-height:30.6122px;font-family:Xolonium;-inkscape-font-specification:'Xolonium, Normal';letter-spacing:0px;white-space:pre"
       transform="matrix(0.26458333,0,0,0.26458333,-14.361586,-1.8121153)"
       aria-label="OUT2"
       sodipodi:insensitive="true" />
    <path
       d="m 37.2,124.1061 h 2.4 v -4.64 h 3.36 l 3.44,4.64 h 2.64 l -3.44,-4.64 H 46 c 1.6,0 2.56,-0.64 2.56,-1.92 v -2.08 c 0,-1.28 -0.96,-1.92 -2.56,-1.92 h -8.8 z m 2.4,-6 v -3.2 h 5.92 c 0.4,0 0.64,0.16 0.64,0.48 v 2.24 c 0,0.32 -0.24,0.48 -0.64,0.48 z m 10.160006,6 h 2.4 l 1.472,-2.96 h 5.536 l 1.472,2.96 h 2.4 l -5.28,-10.56 h -2.72 z m 4.56,-4.32 2.08,-4.16 2.08,4.16 z m 7.359993,-4.88 h 5.12 v 9.2 h 2.4 v -9.2 h 5.12 v -1.36 h -12.64 z m 14.240002,9.2 h 10.72 v -1.36 h -8.32 v -3.84 h 7.52 v -1.36 h -7.52 v -2.64 h 8.32 v -1.36 h -10.72 z"
       id="text8"
       style="font-size:16px;line-height:30.6122px;font-family:Xolonium;-inkscape-font-specification:'Xolonium, Normal';letter-spacing:0px;white-space:pre"
       transform="matrix(0.26458333,0,0,0.26458333,3.9369997,0)"
       aria-label="RATE" />
  </g>
  <g
     inkscape:groupmode="layer"
     id="layer2"
     inkscape:label="components"
     style="display:none">
    <ellipse
       style="display:none;fill:#ff0000;stroke-width:0.264583;fill-opacity:1"
       id="path8"
       cx="19.84375"
       cy="39.422916"
       rx="2.9104166"
       ry="2.6458333"
       inkscape:label="RATE" />
    <ellipse
       style="fill:#0000ff;fill-opacity:1;fill-rule:evenodd;stroke-width:0.264583"
       id="path8-60-0"
       cx="20.471718"
       cy="83.362854"
       rx="2.9100001"
       ry="2.778125"
       inkscape:label="CVOUT1"
       inkscape:highlight-color="#0000ff"
       sodipodi:insensitive="true" />
    <ellipse
       style="fill:#0000ff;fill-opacity:1;fill-rule:evenodd;stroke-width:0.264583"
       id="path8-60-66"
       cx="20.471718"
       cy="105.58784"
       rx="2.9104166"
       ry="2.778125"
       inkscape:label="CVOUT2"
       inkscape:highlight-color="#0000ff"
       sodipodi:insensitive="true" />
  </g>
  <metadata
     id="metadata1">
    <rdf:RDF>
      <cc:Work
         rdf:about="">
        <dc:publisher>
          <cc:Agent>
            <dc:title>WavsynModular</dc:title>
          </cc:Agent>
        </dc:publisher>
        <dc:creator>
          <cc:Agent>
            <dc:title>Erich Izdepsk</dc:title>
          </cc:Agent>
        </dc:creator>
      </cc:Work>
    </rdf:RDF>
  </metadata>
</svg>
