<?xml version="1.0" encoding="UTF-8" standalone="no"?>
<!-- Created with Inkscape (http://www.inkscape.org/) -->

<svg
   width="40.639999mm"
   height="128.5mm"
   viewBox="0 0 40.639999 128.5"
   version="1.1"
   id="svg1"
   inkscape:version="1.3.2 (091e20e, 2023-11-25, custom)"
   sodipodi:docname="Strange.svg"
   xmlns:inkscape="http://www.inkscape.org/namespaces/inkscape"
   xmlns:sodipodi="http://sodipodi.sourceforge.net/DTD/sodipodi-0.dtd"
   xmlns="http://www.w3.org/2000/svg"
   xmlns:svg="http://www.w3.org/2000/svg"
   xmlns:rdf="http://www.w3.org/1999/02/22-rdf-syntax-ns#"
   xmlns:cc="http://creativecommons.org/ns#"
   xmlns:dc="http://purl.org/dc/elements/1.1/">
  <sodipodi:namedview
     id="namedview1"
     pagecolor="#bb91ff"
     bordercolor="#000000"
     borderopacity="0.25"
     inkscape:showpageshadow="2"
     inkscape:pageopacity="0.0"
     inkscape:pagecheckerboard="true"
     inkscape:deskcolor="#d1d1d1"
     inkscape:document-units="mm"
     inkscape:zoom="1"
     inkscape:cx="81.5"
     inkscape:cy="255.5"
     inkscape:window-width="1421"
     inkscape:window-height="977"
     inkscape:window-x="447"
     inkscape:window-y="296"
     inkscape:window-maximized="0"
     inkscape:current-layer="layer1"
     showguides="true">
    <sodipodi:guide
       position="0,128.5"
       orientation="0,153.6"
       id="guide1"
       inkscape:locked="false" />
    <sodipodi:guide
       position="40.639999,128.5"
       orientation="485.66929,0"
       id="guide2"
       inkscape:locked="false" />
    <sodipodi:guide
       position="40.639999,0"
       orientation="0,-153.6"
       id="guide3"
       inkscape:locked="false" />
    <sodipodi:guide
       position="0,0"
       orientation="-485.66929,0"
       id="guide4"
       inkscape:locked="false" />
  </sodipodi:namedview>
  <defs
     id="defs1">
    <rect
       x="73"
       y="157"
       width="85"
       height="33"
       id="rect17" />
    <rect
       x="85"
       y="279"
       width="64"
       height="28"
       id="rect16" />
    <rect
       x="23"
       y="177"
       width="37.999999"
       height="33"
       id="rect15" />
    <rect
       x="5"
       y="277"
       width="61.999999"
       height="28.999999"
       id="rect12" />
    <rect
       x="69"
       y="82"
       width="88"
       height="54"
       id="rect2" />
    <rect
       x="36"
       y="104"
       width="66"
       height="32"
       id="rect11" />
    <rect
       x="104"
       y="360"
       width="101"
       height="29"
       id="rect8" />
    <rect
       x="100"
       y="359"
       width="90"
       height="31"
       id="rect6" />
    <rect
       x="138"
       y="25"
       width="179"
       height="39"
       id="rect3" />
    <rect
       x="42"
       y="361"
       width="92"
       height="63"
       id="rect10" />
    <rect
       x="57"
       y="271"
       width="99.000001"
       height="71.000001"
       id="rect9" />
    <rect
       x="9"
       y="61"
       width="139"
       height="24"
       id="rect7" />
    <rect
       x="17.225366"
       y="29.665908"
       width="128.70667"
       height="54.407697"
       id="rect5" />
    <rect
       x="25.838049"
       y="44.977345"
       width="100.4813"
       height="34.450732"
       id="rect4" />
    <rect
       x="5"
       y="277"
       width="61.999999"
       height="28.999999"
       id="rect13" />
  </defs>
  <g
     inkscape:groupmode="layer"
     id="layer3"
     inkscape:label="background">
    <rect
       style="fill:#e5e5e5;fill-opacity:1;fill-rule:evenodd;stroke-width:0.264583"
       id="panel"
       width="40.639999"
       height="128.5"
       x="0"
       y="8.437695e-15" />
    <rect
       style="display:inline;fill:#000000;stroke-width:0.264583"
       id="rect1"
       width="10.31875"
       height="10.318752"
       x="26.140844"
       y="101.60001"
       sodipodi:insensitive="true" />
    <rect
       style="display:inline;fill:#000000;stroke-width:0.264583"
       id="rect1-1"
       width="10.31875"
       height="10.318752"
       x="4.7095904"
       y="101.60001"
       sodipodi:insensitive="true" />
    <rect
       style="display:inline;fill:#000000;stroke-width:0.264583"
       id="rect14"
       width="10.31875"
       height="10.318752"
       x="26.140844"
       y="79.900002"
       sodipodi:insensitive="true" />
  </g>
  <g
     inkscape:label="text"
     inkscape:groupmode="layer"
     id="layer1">
    <path
       style="font-size:18.6667px;line-height:35.7143px;font-family:Xolonium;-inkscape-font-specification:'Xolonium, Normal';letter-spacing:4px;white-space:pre;stroke-width:0.264583"
       d="m 2.9456657,11.764467 h 2.7163924 c 0.4938897,0 0.7902231,-0.197556 0.7902231,-0.592668 v -0.839612 c 0,-0.3951121 -0.2963334,-0.592668 -0.7902231,-0.592668 H 3.8840555 C 3.7605824,9.739519 3.686499,9.69013 3.686499,9.5913521 V 9.0727677 c 0,-0.098778 0.074083,-0.148167 0.1975565,-0.148167 H 6.2053376 V 8.5047946 H 3.7358888 c -0.4938898,0 -0.7902231,0.1975559 -0.7902231,0.5926677 v 0.4691951 c 0,0.3951118 0.2963333,0.5926676 0.7902231,0.5926676 h 1.7780026 c 0.1234731,0 0.1975564,0.04939 0.1975564,0.148167 v 0.889002 c 0,0.09878 -0.074083,0.148167 -0.1975564,0.148167 H 2.9456657 Z M 7.8069478,8.9246007 H 9.387394 v 2.8398663 h 0.740833 V 8.9246007 h 1.580449 V 8.5047946 H 7.8069478 Z m 5.4539512,2.8398663 h 0.740836 v -1.43228 h 1.037167 l 1.061863,1.43228 h 0.814919 l -1.061863,-1.43228 h 0.123473 c 0.49389,0 0.790223,-0.197556 0.790223,-0.592668 V 9.0974623 c 0,-0.3951118 -0.296333,-0.5926677 -0.790223,-0.5926677 H 13.260899 Z M 14.001735,9.9123803 V 8.9246007 h 1.827393 c 0.12347,0 0.197553,0.049389 0.197553,0.148167 v 0.6914456 c 0,0.098778 -0.07408,0.148167 -0.197553,0.148167 z m 4.194535,1.8520867 h 0.740833 l 0.45438,-0.913696 h 1.708856 l 0.45438,0.913696 h 0.740836 L 20.665719,8.5047946 h -0.839613 z m 1.407583,-1.333502 0.642059,-1.2841137 0.642057,1.2841137 z m 4.169844,1.333502 h 0.740834 V 9.3937961 l 1.975559,2.3706709 h 0.790223 V 8.5047946 H 26.539479 V 10.875465 L 24.56392,8.5047946 h -0.790223 z m 5.305788,-0.592668 c 0,0.395112 0.296333,0.592668 0.790223,0.592668 H 32.5861 V 9.739519 h -1.679226 v 0.419806 h 0.938393 v 1.185336 h -1.827393 c -0.123473,0 -0.197556,-0.04939 -0.197556,-0.148167 V 9.0727677 c 0,-0.098778 0.07408,-0.148167 0.197556,-0.148167 h 2.37067 V 8.5047946 h -2.518836 c -0.49389,0 -0.790223,0.1975559 -0.790223,0.5926677 z m 5.305787,0.592668 h 3.309062 v -0.419806 h -2.568226 v -1.185336 h 2.321279 V 9.739519 H 35.126108 V 8.9246007 h 2.568226 V 8.5047946 h -3.309062 z"
       id="strange"
       aria-label="STRANGE"
       sodipodi:insensitive="true" />
    <path
       d="m 2.2754105,98.778803 c 0,0.338667 0.254,0.508 0.6773337,0.508 h 1.6509991 c 0.4233327,0 0.6773324,-0.169333 0.6773324,-0.508 v -1.778 c 0,-0.338666 -0.2539997,-0.508 -0.6773324,-0.508 H 2.9527442 c -0.4233337,0 -0.6773337,0.169334 -0.6773337,0.508 z m 0.6349997,0.02117 V 96.97964 c 0,-0.08467 0.0635,-0.127 0.169334,-0.127 h 1.3969991 c 0.105833,0 0.169333,0.04233 0.169333,0.127 v 1.820333 c 0,0.08467 -0.0635,0.127 -0.169333,0.127 H 3.0797442 c -0.105834,0 -0.169334,-0.04233 -0.169334,-0.127 z m 3.0056682,-0.02117 c 0,0.338667 0.254,0.508 0.6773327,0.508 h 1.6509991 c 0.4233327,0 0.6773327,-0.169333 0.6773327,-0.508 v -2.286 H 8.2867432 v 2.307167 c 0,0.08467 -0.0635,0.127 -0.169333,0.127 H 6.7204111 c -0.105833,0 -0.169333,-0.04233 -0.169333,-0.127 V 96.492803 H 5.9160784 Z m 3.4290002,-1.926166 h 1.3546664 v 2.434166 h 0.635 v -2.434166 h 1.354666 V 96.492803 H 9.3450786 Z m 4.2544994,0 h 0.846667 v 2.434166 h 0.635 v -2.794 h -1.481667 z"
       id="OUT1"
       style="font-size:16px;line-height:30.6122px;font-family:Xolonium;-inkscape-font-specification:'Xolonium, Normal';letter-spacing:0px;white-space:pre;stroke-width:0.264583"
       aria-label="OUT1"
       sodipodi:insensitive="true" />
    <path
       d="m 24.585087,98.778803 c 0,0.338666 0.254,0.508 0.677334,0.508 h 1.651 c 0.423333,0 0.677333,-0.169334 0.677333,-0.508 v -1.778 c 0,-0.338667 -0.254,-0.508 -0.677333,-0.508 h -1.651 c -0.423334,0 -0.677334,0.169333 -0.677334,0.508 z m 0.635,0.02117 V 96.97964 c 0,-0.08467 0.0635,-0.127 0.169334,-0.127 h 1.397 c 0.105833,0 0.169333,0.04233 0.169333,0.127 v 1.820333 c 0,0.08467 -0.0635,0.127 -0.169333,0.127 h -1.397 c -0.105834,0 -0.169334,-0.04233 -0.169334,-0.127 z m 3.00567,-0.02117 c 0,0.338666 0.254,0.508 0.677333,0.508 h 1.651 c 0.423333,0 0.677333,-0.169334 0.677333,-0.508 v -2.286 h -0.635 v 2.307166 c 0,0.08467 -0.0635,0.127 -0.169333,0.127 h -1.397 c -0.105833,0 -0.169333,-0.04233 -0.169333,-0.127 v -2.307166 h -0.635 z m 3.429002,-1.926167 h 1.354667 v 2.434167 h 0.635 v -2.434167 h 1.354666 v -0.359833 h -3.344333 z m 3.704167,2.434167 h 2.921 v -0.359834 h -2.286 v -0.889 c 0,-0.08467 0.0635,-0.127 0.169333,-0.127 h 1.439333 c 0.423334,0 0.677334,-0.169333 0.677334,-0.508 v -0.402166 c 0,-0.338667 -0.254,-0.508 -0.677334,-0.508 h -2.032 v 0.359833 h 1.905 c 0.105834,0 0.169334,0.04233 0.169334,0.127 v 0.4445 c 0,0.08467 -0.0635,0.127 -0.169334,0.127 h -1.439333 c -0.423333,0 -0.677333,0.169333 -0.677333,0.508 z"
       id="OUT2"
       style="font-size:16px;line-height:30.6122px;font-family:Xolonium;-inkscape-font-specification:'Xolonium, Normal';letter-spacing:0px;white-space:pre;stroke-width:0.264583"
       aria-label="OUT2"
       sodipodi:insensitive="true" />
    <path
       d="m 2.9456657,19.607239 h 0.635 v -1.227667 h 0.889 l 0.9101666,1.227667 h 0.6985 L 5.1681657,18.379572 H 5.273999 c 0.4233333,0 0.6773333,-0.169333 0.6773333,-0.508 v -0.550333 c 0,-0.338667 -0.254,-0.508 -0.6773333,-0.508 H 2.9456657 Z m 0.635,-1.5875 V 17.173072 H 5.146999 c 0.1058333,0 0.1693333,0.04233 0.1693333,0.127 v 0.592667 c 0,0.08467 -0.0635,0.127 -0.1693333,0.127 z m 2.6881682,1.5875 h 0.635 l 0.3894667,-0.783167 h 1.4647333 l 0.3894667,0.783167 h 0.6349999 l -1.3969999,-2.794 H 7.6658339 Z m 1.2065,-1.143 0.5503333,-1.100667 0.5503334,1.100667 z m 1.9473315,-1.291167 h 1.3546666 v 2.434167 h 0.635 v -2.434167 h 1.354667 V 16.813239 H 9.4226654 Z m 3.7676676,2.434167 h 2.836333 v -0.359834 h -2.201333 v -1.016 h 1.989666 v -0.359833 h -1.989666 v -0.6985 h 2.201333 v -0.359833 h -2.836333 z"
       id="RATE"
       style="font-size:16px;line-height:30.6122px;font-family:Xolonium;-inkscape-font-specification:'Xolonium, Normal';letter-spacing:0px;white-space:pre;stroke-width:0.264583"
       aria-label="RATE"
       sodipodi:insensitive="true" />
    <path
       style="font-size:4.23333px;line-height:8.09948px;font-family:Xolonium;-inkscape-font-specification:'Xolonium, Normal';letter-spacing:0px;stroke-width:0.264583"
       d="m 23.809006,17.145002 h 1.354665 v 2.434164 h 0.635 v -2.434164 h 1.354665 v -0.359833 h -3.34433 z m 3.767664,1.926165 c 0,0.338666 0.254,0.507999 0.677333,0.507999 h 1.650998 c 0.423333,0 0.677333,-0.169333 0.677333,-0.507999 v -2.285998 h -0.634999 v 2.307164 c 0,0.08467 -0.0635,0.127 -0.169333,0.127 h -1.396999 c -0.105834,0 -0.169334,-0.04233 -0.169334,-0.127 V 16.785169 H 27.57667 Z m 3.640666,0.507999 h 0.635 v -2.031998 l 1.693332,2.031998 H 34.223 v -2.793997 h -0.634999 v 2.031998 l -1.693332,-2.031998 h -0.677333 z m 3.640666,0 h 2.836331 v -0.359833 h -2.201331 v -1.015999 h 1.989665 v -0.359833 h -1.989665 v -0.698499 h 2.201331 v -0.359833 h -2.836331 z"
       id="tune"
       aria-label="TUNE"
       sodipodi:insensitive="true" />
    <path
       style="font-size:16px;line-height:30.6122px;font-family:Xolonium;-inkscape-font-specification:'Xolonium, Normal';letter-spacing:0px;white-space:pre;stroke-width:0.264583"
       d="m 2.275,72.177833 c 0,0.338666 0.254,0.508 0.6773334,0.508 H 5.2806667 V 70.950166 H 3.8413334 v 0.359833 h 0.8043333 v 1.016 H 3.0793334 C 2.9735,72.325999 2.91,72.283669 2.91,72.198999 v -1.820333 c 0,-0.08467 0.0635,-0.127 0.1693334,-0.127 H 5.1113333 V 69.891833 H 2.9523334 C 2.529,69.891833 2.275,70.061166 2.275,70.399833 Z m 3.3655026,0.508 h 0.635 l 0.3894667,-0.783167 h 1.4647333 l 0.3894667,0.783167 h 0.635 l -1.397,-2.794 H 7.0375026 Z m 1.2065,-1.143 0.5503334,-1.100667 0.5503333,1.100667 z m 1.9473312,-1.291167 h 1.3546672 v 2.434167 H 10.784 v -2.434167 h 1.354667 V 69.891833 H 8.7943338 Z m 3.7676672,2.434167 h 2.836333 v -0.359834 h -2.201333 v -1.016 h 1.989666 v -0.359833 h -1.989666 v -0.6985 h 2.201333 v -0.359833 h -2.836333 z"
       id="gatein"
       aria-label="GATE" />
    <path
       style="font-size:16px;line-height:30.61px;font-family:Xolonium;-inkscape-font-specification:'Xolonium, Normal';letter-spacing:0px;white-space:pre;stroke-width:0.264583"
       d="m 24.585,72.177833 c 0,0.338666 0.254,0.508 0.677333,0.508 h 2.328334 v -1.735667 h -1.439334 v 0.359833 h 0.804334 v 1.016 h -1.566334 c -0.105833,0 -0.169333,-0.04233 -0.169333,-0.127 v -1.820333 c 0,-0.08467 0.0635,-0.127 0.169333,-0.127 h 2.032 v -0.359833 h -2.159 c -0.423333,0 -0.677333,0.169333 -0.677333,0.508 z m 3.365503,0.508 h 0.635 l 0.389466,-0.783167 h 1.464734 l 0.389466,0.783167 h 0.635 l -1.397,-2.794 h -0.719666 z m 1.2065,-1.143 0.550333,-1.100667 0.550333,1.100667 z m 1.947331,-1.291167 H 32.459 v 2.434167 h 0.635 v -2.434167 h 1.354667 v -0.359833 h -3.344333 z m 3.767667,2.434167 h 2.836333 v -0.359834 h -2.201333 v -1.016 h 1.989667 v -0.359833 h -1.989667 v -0.6985 h 2.201333 v -0.359833 h -2.836333 z"
       id="gateout"
       aria-label="GATE" />
    <path
       style="font-size:16px;line-height:30.61px;font-family:Xolonium;-inkscape-font-specification:'Xolonium, Normal';letter-spacing:0px;white-space:pre;stroke-width:0.264583"
       d="m 6.9320833,77.550696 h 0.635 v -2.794 h -0.635 z m 1.2699968,0 h 0.635 v -2.032 l 1.6933339,2.032 h 0.677333 v -2.794 h -0.635 v 2.032 l -1.6933336,-2.032 H 8.2020801 Z"
       id="text14"
       aria-label="IN" />
    <path
       d="m 26.141,77.042696 c 0,0.338667 0.254,0.508 0.677333,0.508 h 1.651 c 0.423334,0 0.677334,-0.169333 0.677334,-0.508 v -1.778 c 0,-0.338666 -0.254,-0.508 -0.677334,-0.508 h -1.651 c -0.423333,0 -0.677333,0.169334 -0.677333,0.508 z m 0.635,0.02117 v -1.820333 c 0,-0.08467 0.0635,-0.127 0.169333,-0.127 h 1.397 c 0.105834,0 0.169334,0.04233 0.169334,0.127 v 1.820333 c 0,0.08467 -0.0635,0.127 -0.169334,0.127 h -1.397 c -0.105833,0 -0.169333,-0.04233 -0.169333,-0.127 z m 3.005669,-0.02117 c 0,0.338667 0.254,0.508 0.677334,0.508 h 1.651 c 0.423333,0 0.677333,-0.169333 0.677333,-0.508 v -2.286 h -0.635 v 2.307167 c 0,0.08467 -0.0635,0.127 -0.169333,0.127 h -1.397 c -0.105834,0 -0.169334,-0.04233 -0.169334,-0.127 v -2.307167 h -0.635 z m 3.429003,-1.926166 h 1.354667 v 2.434166 h 0.635 V 75.11653 h 1.354666 v -0.359834 h -3.344333 z"
       id="text15"
       style="font-size:16px;line-height:30.61px;font-family:Xolonium;-inkscape-font-specification:'Xolonium, Normal';letter-spacing:0px;white-space:pre;stroke-width:0.264583"
       aria-label="OUT" />
    <path
       style="font-size:16px;line-height:30.6122px;font-family:Xolonium;-inkscape-font-specification:'Xolonium, Normal';letter-spacing:0px;white-space:pre;stroke-width:0.264583"
       d="m 2.275,44.978 c 0,0.338666 0.254,0.508 0.6773334,0.508 H 5.2806667 V 43.750333 H 3.8413334 v 0.359833 h 0.8043333 v 1.016 H 3.0793334 C 2.9735,45.126166 2.91,45.083836 2.91,44.999166 v -1.820333 c 0,-0.08467 0.0635,-0.127 0.1693334,-0.127 H 5.1113333 V 42.692 H 2.9523334 C 2.529,42.692 2.275,42.861333 2.275,43.2 Z m 3.3655026,0.508 h 0.635 L 6.6649693,44.702833 H 8.1297026 L 8.5191693,45.486 h 0.635 l -1.397,-2.794 H 7.0375026 Z m 1.2065,-1.143 L 7.397336,43.242333 7.9476693,44.343 Z M 8.7943338,43.051833 H 10.149001 V 45.486 H 10.784 v -2.434167 h 1.354667 V 42.692 H 8.7943338 Z M 12.562001,45.486 h 2.836333 v -0.359834 h -2.201333 v -1.016 h 1.989666 v -0.359833 h -1.989666 v -0.6985 h 2.201333 V 42.692 h -2.836333 z"
       id="path16"
       aria-label="GATE" />
    <path
       d="m 23.865417,45.485996 h 0.635 v -1.947334 l 0.973667,1.947334 h 0.592667 l 0.973666,-1.947334 v 1.947334 h 0.635 v -2.794 h -0.804333 l -1.100667,2.201333 -1.100666,-2.201333 h -0.804334 z m 4.444997,-0.508 c 0,0.338666 0.254,0.508 0.677334,0.508 h 1.651 c 0.423333,0 0.677333,-0.169334 0.677333,-0.508 v -1.778 c 0,-0.338667 -0.254,-0.508 -0.677333,-0.508 h -1.651 c -0.423334,0 -0.677334,0.169333 -0.677334,0.508 z m 0.635,0.02117 v -1.820333 c 0,-0.08467 0.0635,-0.127 0.169334,-0.127 h 1.397 c 0.105833,0 0.169333,0.04233 0.169333,0.127 v 1.820333 c 0,0.08467 -0.0635,0.127 -0.169333,0.127 h -1.397 c -0.105834,0 -0.169334,-0.04233 -0.169334,-0.127 z m 3.00567,0.486834 h 1.651 c 0.846667,0 1.354667,-0.338667 1.354667,-1.016 v -0.762 c 0,-0.677334 -0.508,-1.016 -1.354667,-1.016 h -1.651 z m 0.635,-0.359834 v -2.074333 h 0.889 c 0.529167,0 0.846667,0.211667 0.846667,0.635 v 0.804333 c 0,0.423334 -0.3175,0.635 -0.846667,0.635 z M 35.549417,45.486 h 2.836334 v -0.359834 h -2.201334 v -1.016 h 1.989667 v -0.359833 h -1.989667 v -0.6985 h 2.201334 V 42.692 h -2.836334 z"
       id="mode"
       style="font-size:16px;line-height:30.61px;font-family:Xolonium;-inkscape-font-specification:'Xolonium, Normal';letter-spacing:0px;white-space:pre;stroke-width:0.264583"
       aria-label="MODE" />
  </g>
  <g
     inkscape:groupmode="layer"
     id="layer2"
     inkscape:label="components"
     style="display:none">
    <ellipse
       style="display:none;fill:#ff0000;fill-opacity:1;stroke-width:0.264583"
       id="path8"
       cx="9.2960005"
       cy="26.19375"
       rx="2.9100001"
       ry="2.6458333"
       inkscape:label="RATE"
       sodipodi:insensitive="true" />
    <ellipse
       style="fill:#0000ff;fill-opacity:1;stroke-width:0.264583"
       id="path1"
       cx="9.8689651"
       cy="106.62708"
       rx="3.3072915"
       ry="3.7041667"
       inkscape:highlight-color="#0000ff"
       inkscape:label="CVOUT1"
       sodipodi:insensitive="true" />
    <ellipse
       style="fill:#0000ff;fill-opacity:1;stroke-width:0.264583"
       id="ellipse1"
       cx="31.169292"
       cy="106.62708"
       rx="3.3069999"
       ry="3.7041667"
       inkscape:highlight-color="#0000ff"
       inkscape:label="CVOUT2"
       sodipodi:insensitive="true" />
    <ellipse
       style="display:none;fill:#ff0000;fill-opacity:1;stroke-width:0.264583"
       id="ellipse3"
       cx="31.096001"
       cy="26.19375"
       rx="2.9100001"
       ry="2.6458333"
       inkscape:label="TUNE"
       sodipodi:insensitive="true" />
    <ellipse
       style="fill:#00ff00;fill-opacity:1;stroke-width:0.264583"
       id="ellipse4"
       cx="9.8689651"
       cy="85.027168"
       rx="3.3072915"
       ry="3.7041667"
       inkscape:highlight-color="#00ff00"
       inkscape:label="GATEIN"
       sodipodi:insensitive="true" />
    <ellipse
       style="fill:#0000ff;fill-opacity:1;stroke-width:0.264583"
       id="ellipse5"
       cx="31.169584"
       cy="85.027168"
       rx="3.3072915"
       ry="3.7041667"
       inkscape:highlight-color="#0000ff"
       inkscape:label="GATEOUT"
       sodipodi:insensitive="true" />
    <ellipse
       style="display:none;fill:#ff0000;fill-opacity:1;stroke-width:0.264583"
       id="ellipse16"
       cx="9.2960005"
       cy="51.893833"
       rx="2.9100001"
       ry="2.6458333"
       inkscape:label="GATE"
       sodipodi:insensitive="true" />
    <ellipse
       style="display:none;fill:#ff0000;fill-opacity:1;stroke-width:0.264583"
       id="ellipse17"
       cx="30.771999"
       cy="51.893833"
       rx="2.9100001"
       ry="2.6458333"
       inkscape:label="MODE" />
  </g>
  <metadata
     id="metadata1">
    <rdf:RDF>
      <cc:Work
         rdf:about="">
        <dc:publisher>
          <cc:Agent>
            <dc:title>WavsynModular</dc:title>
          </cc:Agent>
        </dc:publisher>
        <dc:creator>
          <cc:Agent>
            <dc:title>Erich Izdepsk</dc:title>
          </cc:Agent>
        </dc:creator>
      </cc:Work>
    </rdf:RDF>
  </metadata>
</svg>
