<?xml version="1.0" encoding="UTF-8" standalone="no"?>
<!-- Created with Inkscape (http://www.inkscape.org/) -->

<svg
   width="121.92mm"
   height="128.5mm"
   viewBox="0 0 121.92 128.5"
   version="1.1"
   id="svg1"
   inkscape:version="1.3.2 (091e20e, 2023-11-25, custom)"
   sodipodi:docname="Trip.svg"
   xmlns:inkscape="http://www.inkscape.org/namespaces/inkscape"
   xmlns:sodipodi="http://sodipodi.sourceforge.net/DTD/sodipodi-0.dtd"
   xmlns="http://www.w3.org/2000/svg"
   xmlns:svg="http://www.w3.org/2000/svg"
   xmlns:rdf="http://www.w3.org/1999/02/22-rdf-syntax-ns#"
   xmlns:cc="http://creativecommons.org/ns#"
   xmlns:dc="http://purl.org/dc/elements/1.1/">
  <sodipodi:namedview
     id="namedview1"
     pagecolor="#bb91ff"
     bordercolor="#000000"
     borderopacity="0.25"
     inkscape:showpageshadow="2"
     inkscape:pageopacity="0.0"
     inkscape:pagecheckerboard="true"
     inkscape:deskcolor="#d1d1d1"
     inkscape:document-units="mm"
     inkscape:zoom="1"
     inkscape:cx="81.5"
     inkscape:cy="255.5"
     inkscape:window-width="1672"
     inkscape:window-height="879"
     inkscape:window-x="199"
     inkscape:window-y="206"
     inkscape:window-maximized="0"
     inkscape:current-layer="layer1"
     showguides="true"
     inkscape:export-bgcolor="#ffffff00">
    <sodipodi:guide
       position="0,128.49999"
       orientation="0,153.6"
       id="guide1"
       inkscape:locked="false" />
    <sodipodi:guide
       position="40.639997,128.49999"
       orientation="485.66929,0"
       id="guide2"
       inkscape:locked="false" />
    <sodipodi:guide
       position="40.639997,0"
       orientation="0,-153.6"
       id="guide3"
       inkscape:locked="false" />
    <sodipodi:guide
       position="0,0"
       orientation="-485.66929,0"
       id="guide4"
       inkscape:locked="false" />
  </sodipodi:namedview>
  <defs
     id="defs1">
    <rect
       x="244"
       y="42"
       width="49"
       height="34"
       id="rect40" />
    <rect
       x="189"
       y="44"
       width="42"
       height="28"
       id="rect39" />
    <rect
       x="134"
       y="44"
       width="75"
       height="31"
       id="rect38" />
    <rect
       x="77"
       y="46"
       width="57"
       height="28"
       id="rect37" />
    <rect
       x="7"
       y="40"
       width="60"
       height="33"
       id="rect36" />
    <rect
       x="21"
       y="54"
       width="87"
       height="32"
       id="rect35" />
    <rect
       x="165"
       y="108"
       width="80"
       height="31"
       id="rect34" />
    <rect
       x="382"
       y="70"
       width="74"
       height="30"
       id="rect33" />
    <rect
       x="315"
       y="50"
       width="52"
       height="35"
       id="rect32" />
    <rect
       x="352"
       y="139"
       width="35"
       height="51"
       id="rect31" />
    <rect
       x="326"
       y="95"
       width="88"
       height="25"
       id="rect30" />
    <rect
       x="9"
       y="287"
       width="68"
       height="29"
       id="rect29" />
    <rect
       x="10"
       y="353"
       width="59"
       height="31"
       id="rect28" />
    <rect
       x="7"
       y="355"
       width="65"
       height="28"
       id="rect27" />
    <rect
       x="9"
       y="282"
       width="74"
       height="31"
       id="rect26" />
    <rect
       x="9"
       y="426"
       width="54"
       height="31"
       id="rect25" />
    <rect
       x="4"
       y="158"
       width="81"
       height="35"
       id="rect21" />
    <rect
       x="33"
       y="56"
       width="116"
       height="39"
       id="rect1" />
    <rect
       x="23"
       y="192"
       width="104"
       height="32"
       id="rect20" />
    <rect
       x="7"
       y="255"
       width="78"
       height="28"
       id="rect19" />
    <rect
       x="74"
       y="56"
       width="71"
       height="29"
       id="rect18" />
    <rect
       x="73"
       y="157"
       width="85"
       height="33"
       id="rect17" />
    <rect
       x="85"
       y="279"
       width="64"
       height="28"
       id="rect16" />
    <rect
       x="23"
       y="177"
       width="38"
       height="33"
       id="rect15" />
    <rect
       x="5"
       y="277"
       width="62"
       height="28.999998"
       id="rect12" />
    <rect
       x="69"
       y="82"
       width="88"
       height="54"
       id="rect2" />
    <rect
       x="36"
       y="104"
       width="66"
       height="32"
       id="rect11" />
    <rect
       x="104"
       y="360"
       width="101"
       height="29"
       id="rect8" />
    <rect
       x="100"
       y="359"
       width="90"
       height="31"
       id="rect6" />
    <rect
       x="138"
       y="25"
       width="179"
       height="39"
       id="rect3" />
    <rect
       x="42"
       y="361"
       width="92"
       height="63"
       id="rect10" />
    <rect
       x="57"
       y="271"
       width="99"
       height="71"
       id="rect9" />
    <rect
       x="9"
       y="61"
       width="139"
       height="24"
       id="rect7" />
    <rect
       x="17.225367"
       y="29.665909"
       width="128.70667"
       height="54.407696"
       id="rect5" />
    <rect
       x="25.838049"
       y="44.977345"
       width="100.4813"
       height="34.450733"
       id="rect4" />
    <rect
       x="5"
       y="277"
       width="62"
       height="28.999998"
       id="rect13" />
  </defs>
  <g
     inkscape:groupmode="layer"
     id="layer3"
     inkscape:label="background"
     style="display:inline"
     sodipodi:insensitive="true">
    <rect
       style="fill:#e5e5e5;fill-opacity:1;fill-rule:evenodd;stroke-width:0.264583"
       id="panel"
       width="121.92"
       height="128.5"
       x="0"
       y="8.437695e-15"
       sodipodi:insensitive="true" />
    <rect
       style="display:inline;fill:#000000;stroke-width:0.264583"
       id="output_panel"
       width="100"
       height="10.319"
       x="18.997091"
       y="111.41688"
       inkscape:label="output_panel"
       sodipodi:insensitive="true" />
    <rect
       style="display:inline;fill:#000000;stroke-width:0.264583"
       id="output_panel-8"
       width="50"
       height="10.319"
       x="68.997093"
       y="36.147999"
       inkscape:label="more_outs"
       sodipodi:insensitive="true" />
  </g>
  <g
     inkscape:label="text"
     inkscape:groupmode="layer"
     id="layer1"
     style="display:inline"
     sodipodi:insensitive="true">
    <path
       style="font-size:18.6667px;line-height:35.7117px;font-family:Xolonium;-inkscape-font-specification:'Xolonium, Normal';letter-spacing:4px;white-space:pre"
       d="m 33.466668,68.722508 h 5.973344 V 79.45586 h 2.800005 V 68.722508 h 5.973344 v -1.58667 H 33.466668 Z M 54.080033,79.45586 h 2.800005 v -5.413343 h 3.920007 l 4.013341,5.413343 h 3.080006 l -4.013341,-5.413343 h 0.466668 c 1.86667,0 2.986672,-0.746668 2.986672,-2.240004 v -2.426671 c 0,-1.493336 -1.120002,-2.240004 -2.986672,-2.240004 H 54.080033 Z m 2.800005,-7.000012 v -3.73334 h 6.90668 c 0.466667,0 0.746668,0.186667 0.746668,0.560001 v 2.613338 c 0,0.373334 -0.280001,0.560001 -0.746668,0.560001 z m 17.066698,7.000012 h 2.800005 V 67.135838 h -2.800005 z m 9.599995,0 h 2.800005 v -5.040009 h 7.46668 c 1.86667,0 2.986672,-0.746668 2.986672,-2.240004 v -2.800005 c 0,-1.493336 -1.120002,-2.240004 -2.986672,-2.240004 H 83.546731 Z m 2.800005,-6.626678 v -4.106674 h 6.906679 c 0.466668,0 0.746668,0.186667 0.746668,0.560001 v 2.986672 c 0,0.373334 -0.28,0.560001 -0.746668,0.560001 z"
       id="trip"
       inkscape:label="trip"
       transform="matrix(0.26458333,0,0,0.26458333,43.726793,-12.7)"
       aria-label="TRIP"
       sodipodi:insensitive="true" />
    <path
       d="m 4.16,167.545 5.28,10.56 h 2.72 l 5.28,-10.56 h -2.48 l -4.16,8.32 -4.16,-8.32 z m 14.480002,8.64 c 0,1.28 0.96,1.92 2.56,1.92 h 6.24 c 1.6,0 2.56,-0.64 2.56,-1.92 v -6.72 c 0,-1.28 -0.96,-1.92 -2.56,-1.92 h -6.24 c -1.6,0 -2.56,0.64 -2.56,1.92 z m 2.4,0.08 v -6.88 c 0,-0.32 0.24,-0.48 0.64,-0.48 h 5.28 c 0.4,0 0.64,0.16 0.64,0.48 v 6.88 c 0,0.32 -0.24,0.48 -0.64,0.48 h -5.28 c -0.4,0 -0.64,-0.16 -0.64,-0.48 z m 11.36001,1.84 h 10.72 v -1.36 h -8.32 v -9.2 h -2.4 z m 9.599994,-9.2 h 5.12 v 9.2 h 2.4 v -9.2 h 5.12 v -1.36 h -12.64 z m 14.080003,9.2 h 8.8 c 1.6,0 2.56,-0.64 2.56,-1.92 v -2.72 c 0,-1.28 -0.96,-1.92 -2.56,-1.92 h -5.76 c -0.4,0 -0.64,-0.16 -0.64,-0.48 v -1.68 c 0,-0.32 0.24,-0.48 0.64,-0.48 h 7.52 v -1.36 h -8 c -1.6,0 -2.56,0.64 -2.56,1.92 v 1.52 c 0,1.28 0.96,1.92 2.56,1.92 h 5.76 c 0.4,0 0.64,0.16 0.64,0.48 v 2.88 c 0,0.32 -0.24,0.48 -0.64,0.48 h -8.32 z"
       id="VOLTS"
       style="font-size:16px;line-height:30.61px;font-family:Xolonium;-inkscape-font-specification:'Xolonium, Normal';letter-spacing:0px;white-space:pre"
       transform="matrix(0.26458333,0,0,0.26458333,1.0583333,14.201512)"
       aria-label="VOLTS"
       sodipodi:insensitive="true" />
    <path
       style="font-size:16px;line-height:30.61px;font-family:Xolonium;-inkscape-font-specification:'Xolonium, Normal';letter-spacing:0px;white-space:pre;stroke-width:1.00157"
       d="m 10.2,444.185 c 0,1.28 0.96,1.92 2.56,1.92 H 19 c 1.6,0 2.56,-0.64 2.56,-1.92 v -6.72 c 0,-1.28 -0.96,-1.92 -2.56,-1.92 h -6.24 c -1.6,0 -2.56,0.64 -2.56,1.92 z m 2.4,0.08 v -6.88 c 0,-0.32 0.24,-0.48 0.64,-0.48 h 5.28 c 0.4,0 0.64,0.16 0.64,0.48 v 6.88 c 0,0.32 -0.24,0.48 -0.64,0.48 h -5.28 c -0.4,0 -0.64,-0.16 -0.64,-0.48 z m 11.36001,-0.08 c 0,1.28 0.96,1.92 2.56,1.92 h 6.24 c 1.6,0 2.56,-0.64 2.56,-1.92 v -8.64 h -2.4 v 8.72 c 0,0.32 -0.24,0.48 -0.64,0.48 h -5.28 c -0.4,0 -0.64,-0.16 -0.64,-0.48 v -8.72 h -2.4 z m 12.96001,-7.28 h 5.12 v 9.2 h 2.4 v -9.2 h 5.12 v -1.36 h -12.64 z"
       id="out"
       transform="matrix(0.26458333,0,0,0.26458333,0,0.17859165)"
       aria-label="OUT"
       sodipodi:insensitive="true" />
    <path
       d="m 11.2,371.185 c 0,1.28 0.96,1.92 2.56,1.92 h 8.8 v -6.56 h -5.44 v 1.36 h 3.04 v 3.84 h -5.92 c -0.4,0 -0.64,-0.16 -0.64,-0.48 v -6.88 c 0,-0.32 0.24,-0.48 0.64,-0.48 h 7.68 v -1.36 h -8.16 c -1.6,0 -2.56,0.64 -2.56,1.92 z m 12.72001,1.92 h 2.4 l 1.472,-2.96 h 5.536 l 1.472,2.96 h 2.4 l -5.28,-10.56 h -2.72 z m 4.56,-4.32 2.08,-4.16 2.08,4.16 z m 7.359992,-4.88 h 5.12 v 9.2 h 2.4 v -9.2 h 5.12 v -1.36 h -12.64 z m 14.240003,9.2 h 10.72 v -1.36 h -8.32 v -3.84 h 7.52 v -1.36 h -7.52 v -2.64 h 8.32 v -1.36 h -10.72 z"
       id="text28"
       style="font-size:16px;line-height:30.61px;font-family:Xolonium;-inkscape-font-specification:'Xolonium, Normal';letter-spacing:0px;white-space:pre;stroke-width:1.00157"
       inkscape:label="gate"
       transform="matrix(0.26458333,0,0,0.26458333,-0.26458333,0.53137075)"
       aria-label="GATE"
       sodipodi:insensitive="true" />
    <path
       d="m 87.435421,34.180199 c 0,0.338667 0.254,0.508 0.677334,0.508 h 2.328333 v -1.735666 h -1.439333 v 0.359833 h 0.804333 v 1.016 h -1.566333 c -0.105834,0 -0.169334,-0.04233 -0.169334,-0.127 v -1.820333 c 0,-0.08467 0.0635,-0.127 0.169334,-0.127 h 2.032 v -0.359834 h -2.159 c -0.423334,0 -0.677334,0.169334 -0.677334,0.508 z m 3.365503,0.508 h 0.635 l 0.389467,-0.783166 h 1.464733 l 0.389467,0.783166 h 0.635 l -1.397,-2.794 h -0.719667 z m 1.2065,-1.143 0.550333,-1.100666 0.550334,1.100666 z m 1.947331,-1.291166 h 1.354667 v 2.434166 h 0.635 v -2.434166 h 1.354666 v -0.359834 h -3.344333 z m 3.767667,2.434166 h 2.836338 v -0.359833 h -2.201338 v -1.016 h 1.989668 v -0.359833 h -1.989668 v -0.6985 h 2.201338 v -0.359834 h -2.836338 z"
       id="text28-3"
       style="font-size:16px;line-height:30.61px;font-family:Xolonium;-inkscape-font-specification:'Xolonium, Normal';letter-spacing:0px;white-space:pre;display:inline;stroke-width:0.264999"
       inkscape:label="gateout"
       aria-label="GATE" />
    <path
       d="m 10.04,307.105 h 8.8 c 1.6,0 2.56,-0.64 2.56,-1.92 v -2.72 c 0,-1.28 -0.96,-1.92 -2.56,-1.92 h -5.76 c -0.4,0 -0.64,-0.16 -0.64,-0.48 v -1.68 c 0,-0.32 0.24,-0.48 0.64,-0.48 h 7.52 v -1.36 h -8 c -1.6,0 -2.56,0.64 -2.56,1.92 v 1.52 c 0,1.28 0.96,1.92 2.56,1.92 h 5.76 c 0.4,0 0.64,0.16 0.64,0.48 v 2.88 c 0,0.32 -0.24,0.48 -0.64,0.48 h -8.32 z m 13.600002,0 h 2.4 v -4.32 h 6.4 c 1.6,0 2.56,-0.64 2.56,-1.92 v -2.4 c 0,-1.28 -0.96,-1.92 -2.56,-1.92 h -8.8 z m 2.4,-5.68 v -3.52 h 5.92 c 0.4,0 0.64,0.16 0.64,0.48 v 2.56 c 0,0.32 -0.24,0.48 -0.64,0.48 z m 8.720004,5.68 h 2.4 l 1.472,-2.96 h 5.536 l 1.472,2.96 h 2.4 l -5.28,-10.56 h -2.72 z m 4.56,-4.32 2.08,-4.16 2.08,4.16 z m 9.920003,2.4 c 0,1.28 0.96,1.92 2.56,1.92 h 8.16 v -1.36 h -7.68 c -0.4,0 -0.64,-0.16 -0.64,-0.48 v -6.88 c 0,-0.32 0.24,-0.48 0.64,-0.48 h 7.68 v -1.36 h -8.16 c -1.6,0 -2.56,0.64 -2.56,1.92 z m 12.799987,1.92 h 10.72 v -1.36 h -8.32 v -3.84 h 7.52 v -1.36 h -7.52 v -2.64 h 8.32 v -1.36 h -10.72 z"
       id="text29"
       style="font-size:16px;line-height:30.61px;font-family:Xolonium;-inkscape-font-specification:'Xolonium, Normal';letter-spacing:0px;white-space:pre;stroke-width:1.00157"
       transform="matrix(0.26458333,0,0,0.26458333,-0.49741668,-0.96793329)"
       aria-label="SPACE"
       inkscape:label="space"
       sodipodi:insensitive="true" />
    <path
       d="m 72.692839,34.180199 c 0,0.338667 0.254,0.508 0.677333,0.508 h 2.159 v -0.359833 h -2.032 c -0.105833,0 -0.169333,-0.04233 -0.169333,-0.127 v -1.820333 c 0,-0.08467 0.0635,-0.127 0.169333,-0.127 h 2.032 v -0.359834 h -2.159 c -0.423333,0 -0.677333,0.169334 -0.677333,0.508 z m 3.111497,-2.286 1.397,2.794 h 0.719667 l 1.397,-2.794 h -0.656167 l -1.100666,2.201334 -1.100667,-2.201334 z"
       id="cv"
       style="font-size:16px;line-height:30.61px;font-family:Xolonium;-inkscape-font-specification:'Xolonium, Normal';letter-spacing:0px;white-space:pre;stroke-width:0.264999"
       inkscape:label="cv"
       aria-label="CV" />
    <path
       d="m 106.16794,32.254033 h 1.35466 v 2.434166 h 0.635 v -2.434166 h 1.35467 v -0.359834 h -3.34433 z m 3.76766,2.434166 h 0.635 v -1.227666 h 0.889 l 0.91017,1.227666 h 0.6985 l -0.91017,-1.227666 h 0.10584 c 0.42333,0 0.67733,-0.169334 0.67733,-0.508 v -0.550334 c 0,-0.338666 -0.254,-0.508 -0.67733,-0.508 h -2.32834 z m 0.635,-1.5875 v -0.846666 h 1.56634 c 0.10583,0 0.16933,0.04233 0.16933,0.127 v 0.592666 c 0,0.08467 -0.0635,0.127 -0.16933,0.127 z m 2.96334,1.5875 h 0.635 v -2.794 h -0.635 z m 1.27,-0.508 c 0,0.338667 0.254,0.508 0.67733,0.508 h 2.32833 v -1.735666 h -1.43933 v 0.359833 h 0.80433 v 1.016 h -1.56633 c -0.10583,0 -0.16933,-0.04233 -0.16933,-0.127 v -1.820333 c 0,-0.08467 0.0635,-0.127 0.16933,-0.127 h 2.032 v -0.359834 h -2.159 c -0.42333,0 -0.67733,0.169334 -0.67733,0.508 z"
       id="text32"
       style="font-size:16px;line-height:30.61px;font-family:Xolonium;-inkscape-font-specification:'Xolonium, Normal';letter-spacing:0px;white-space:pre;stroke-width:0.264999"
       inkscape:label="trig"
       aria-label="TRIG" />
    <path
       d="m 49.803167,34.688199 h 0.635 v -1.227667 h 0.889 l 0.910167,1.227667 h 0.6985 l -0.910167,-1.227667 h 0.105834 c 0.423333,0 0.677333,-0.169333 0.677333,-0.508 v -0.550333 c 0,-0.338667 -0.254,-0.508 -0.677333,-0.508 h -2.328334 z m 0.635,-1.5875 v -0.846667 h 1.566334 c 0.105833,0 0.169333,0.04233 0.169333,0.127 v 0.592667 c 0,0.08467 -0.0635,0.127 -0.169333,0.127 z m 2.963336,1.5875 h 2.836334 v -0.359833 h -2.201334 v -1.016 h 1.989667 v -0.359834 h -1.989667 v -0.6985 h 2.201334 v -0.359833 h -2.836334 z m 3.344328,0 h 2.328334 c 0.423333,0 0.677333,-0.169333 0.677333,-0.508 v -0.719667 c 0,-0.338666 -0.254,-0.508 -0.677333,-0.508 h -1.524 c -0.105834,0 -0.169334,-0.04233 -0.169334,-0.127 v -0.4445 c 0,-0.08467 0.0635,-0.127 0.169334,-0.127 h 1.989666 v -0.359833 h -2.116666 c -0.423334,0 -0.677334,0.169333 -0.677334,0.508 v 0.402167 c 0,0.338666 0.254,0.508 0.677334,0.508 h 1.524 c 0.105833,0 0.169333,0.04233 0.169333,0.127 v 0.762 c 0,0.08467 -0.0635,0.127 -0.169333,0.127 h -2.201334 z m 3.598336,0 h 2.836334 v -0.359833 h -2.201334 v -1.016 h 1.989667 v -0.359834 h -1.989667 v -0.6985 h 2.201334 v -0.359833 h -2.836334 z m 3.174995,-2.434167 h 1.354667 v 2.434167 h 0.635 v -2.434167 h 1.354666 v -0.359833 h -3.344333 z"
       id="text33"
       style="font-size:16px;line-height:30.61px;font-family:Xolonium;-inkscape-font-specification:'Xolonium, Normal';letter-spacing:0px;white-space:pre;stroke-width:0.264999"
       aria-label="RESET"
       inkscape:label="reset" />
    <path
       style="font-size:16px;line-height:30.61px;font-family:Xolonium;-inkscape-font-specification:'Xolonium, Normal';letter-spacing:0px;white-space:pre;display:inline;stroke-width:0.264999"
       d="m 15.39875,34.688197 h 0.635 v -1.947333 l 0.973667,1.947333 h 0.592667 l 0.973666,-1.947333 v 1.947333 h 0.635 v -2.794 H 18.404417 L 17.30375,34.095531 16.203084,31.894197 H 15.39875 Z m 4.444997,-0.508 c 0,0.338667 0.254,0.508 0.677333,0.508 h 1.651 c 0.423334,0 0.677334,-0.169333 0.677334,-0.508 v -1.778 c 0,-0.338666 -0.254,-0.508 -0.677334,-0.508 h -1.651 c -0.423333,0 -0.677333,0.169334 -0.677333,0.508 z m 0.635,0.02117 v -1.820333 c 0,-0.08467 0.0635,-0.127 0.169333,-0.127 h 1.397 c 0.105834,0 0.169334,0.04233 0.169334,0.127 v 1.820333 c 0,0.08467 -0.0635,0.127 -0.169334,0.127 h -1.397 c -0.105833,0 -0.169333,-0.04233 -0.169333,-0.127 z m 3.005669,0.486833 h 1.651 c 0.846667,0 1.354667,-0.338666 1.354667,-1.016 v -0.762 c 0,-0.677333 -0.508,-1.016 -1.354667,-1.016 h -1.651 z m 0.635,-0.359833 v -2.074333 h 0.889 c 0.529167,0 0.846667,0.211666 0.846667,0.635 v 0.804333 c 0,0.423333 -0.3175,0.635 -0.846667,0.635 z m 2.963335,0.359833 h 2.836333 v -0.359833 h -2.201333 v -1.016 h 1.989667 v -0.359833 h -1.989667 v -0.6985 h 2.201333 V 31.8942 h -2.836333 z"
       id="MODE"
       aria-label="MODE"
       inkscape:label="MODE" />
    <path
       d="m 8.2,58.185 c 0,1.28 0.96,1.92 2.56,1.92 H 17 c 1.6,0 2.56,-0.64 2.56,-1.92 v -6.72 c 0,-1.28 -0.96,-1.92 -2.56,-1.92 h -6.24 c -1.6,0 -2.56,0.64 -2.56,1.92 z m 2.4,0.08 v -6.88 c 0,-0.32 0.24,-0.48 0.64,-0.48 h 5.28 c 0.4,0 0.64,0.16 0.64,0.48 v 6.88 c 0,0.32 -0.24,0.48 -0.64,0.48 h -5.28 c -0.4,0 -0.64,-0.16 -0.64,-0.48 z m 11.36001,-0.08 c 0,1.28 0.96,1.92 2.56,1.92 h 8.16 v -1.36 h -7.68 c -0.4,0 -0.64,-0.16 -0.64,-0.48 v -6.88 c 0,-0.32 0.24,-0.48 0.64,-0.48 h 7.68 v -1.36 h -8.16 c -1.6,0 -2.56,0.64 -2.56,1.92 z m 11.999988,-7.28 h 5.12 v 9.2 h 2.4 v -9.2 h 5.12 v -1.36 h -12.64 z"
       id="text35"
       style="font-size:16px;line-height:30.61px;font-family:Xolonium;-inkscape-font-specification:'Xolonium, Normal';letter-spacing:0px;white-space:pre;stroke-width:1.00157"
       inkscape:label="OCT"
       transform="matrix(0.26458333,0,0,0.26458333,4.9303371,0.79375)"
       aria-label="OCT" />
    <path
       d="m 78.2,66.105 h 2.4 v -7.36 l 3.68,7.36 h 2.24 l 3.68,-7.36 v 7.36 h 2.4 v -10.56 h -3.04 l -4.16,8.32 -4.16,-8.32 H 78.2 Z m 16.799988,-1.92 c 0,1.28 0.96,1.92 2.56,1.92 h 6.240002 c 1.6,0 2.56,-0.64 2.56,-1.92 v -6.72 c 0,-1.28 -0.96,-1.92 -2.56,-1.92 h -6.240002 c -1.6,0 -2.56,0.64 -2.56,1.92 z m 2.4,0.08 v -6.88 c 0,-0.32 0.24,-0.48 0.64,-0.48 h 5.280002 c 0.4,0 0.64,0.16 0.64,0.48 v 6.88 c 0,0.32 -0.24,0.48 -0.64,0.48 h -5.280002 c -0.4,0 -0.64,-0.16 -0.64,-0.48 z M 108.76,66.105 H 115 c 3.2,0 5.12,-1.28 5.12,-3.84 v -2.88 c 0,-2.56 -1.92,-3.84 -5.12,-3.84 h -6.24 z m 2.4,-1.36 v -7.84 h 3.36 c 2,0 3.2,0.8 3.2,2.4 v 3.04 c 0,1.6 -1.2,2.4 -3.2,2.4 z"
       id="text36"
       style="font-size:16px;line-height:30.61px;font-family:Xolonium;-inkscape-font-specification:'Xolonium, Normal';letter-spacing:0px;white-space:pre;stroke-width:1.00157"
       inkscape:label="MOD"
       transform="matrix(0.26458333,0,0,0.26458333,10.170119,-0.79374998)"
       aria-label="MOD" />
    <path
       d="m 135.04,64.105 h 8.8 c 1.6,0 2.56,-0.64 2.56,-1.92 v -2.72 c 0,-1.28 -0.96,-1.92 -2.56,-1.92 h -5.76 c -0.4,0 -0.64,-0.16 -0.64,-0.48 v -1.68 c 0,-0.32 0.24,-0.48 0.64,-0.48 h 7.52 v -1.36 h -8 c -1.6,0 -2.56,0.64 -2.56,1.92 v 1.52 c 0,1.28 0.96,1.92 2.56,1.92 h 5.76 c 0.4,0 0.64,0.16 0.64,0.48 v 2.88 c 0,0.32 -0.24,0.48 -0.64,0.48 h -8.32 z m 13.6,0 h 2.4 v -2.08 l 2,-2 4.08,4.08 H 160 l -5.52,-5.52 5.04,-5.04 h -2.88 l -5.6,5.6 v -5.6 h -2.4 z m 12.64002,0 h 2.4 v -10.56 h -2.4 z m 4.79998,0 h 2.4 v -4.32 h 6.4 c 1.6,0 2.56,-0.64 2.56,-1.92 v -2.4 c 0,-1.28 -0.96,-1.92 -2.56,-1.92 h -8.8 z m 2.4,-5.68 v -3.52 h 5.92 c 0.4,0 0.64,0.16 0.64,0.48 v 2.56 c 0,0.32 -0.24,0.48 -0.64,0.48 z"
       id="text37"
       style="font-size:16px;line-height:30.61px;font-family:Xolonium;-inkscape-font-specification:'Xolonium, Normal';letter-spacing:0px;white-space:pre;stroke-width:1.00157"
       inkscape:label="SKIP"
       transform="matrix(0.26458333,0,0,0.26458333,19.293986,-0.26458332)"
       aria-label="SKIP" />
    <path
       d="m 190.2,64.105 h 2.4 v -4.64 h 3.36 l 3.44,4.64 h 2.64 l -3.44,-4.64 h 0.4 c 1.6,0 2.56,-0.64 2.56,-1.92 v -2.08 c 0,-1.28 -0.96,-1.92 -2.56,-1.92 h -8.8 z m 2.4,-6 v -3.2 h 5.92 c 0.4,0 0.64,0.16 0.64,0.48 v 2.24 c 0,0.32 -0.24,0.48 -0.64,0.48 z m 11.20001,6 h 10.72 v -1.36 h -8.32 v -3.84 h 7.52 v -1.36 h -7.52 v -2.64 h 8.32 v -1.36 h -10.72 z m 11.75998,-10.56 5.28,10.56 h 2.72 l 5.28,-10.56 h -2.48 l -4.16,8.32 -4.16,-8.32 z"
       id="text38"
       style="font-size:16px;line-height:30.61px;font-family:Xolonium;-inkscape-font-specification:'Xolonium, Normal';letter-spacing:0px;white-space:pre;stroke-width:1.00157"
       inkscape:label="REV"
       transform="matrix(0.26458333,0,0,0.26458333,29.423268,-0.26458332)"
       aria-label="REV" />
    <path
       d="m 245.2,62.105 h 10.72 v -1.36 h -8.32 v -9.2 h -2.4 z m 12.32001,0 h 10.72 v -1.36 h -8.32 v -3.84 h 7.52 v -1.36 h -7.52 v -2.64 h 8.32 v -1.36 h -10.72 z m 12.79999,0 h 2.4 v -7.68 l 6.4,7.68 h 2.56 v -10.56 h -2.4 v 7.68 l -6.4,-7.68 h -2.56 z"
       id="text39"
       style="font-size:16px;line-height:30.61px;font-family:Xolonium;-inkscape-font-specification:'Xolonium, Normal';letter-spacing:0px;white-space:pre;stroke-width:1.00157"
       inkscape:label="LEN"
       transform="matrix(0.26458333,0,0,0.26458333,39.38323,0.26458334)"
       aria-label="LEN" />
  </g>
  <g
     inkscape:groupmode="layer"
     id="layer2"
     inkscape:label="components"
     style="display:none"
     sodipodi:insensitive="true">
    <ellipse
       style="display:inline;fill:#ff0000;fill-opacity:1;stroke-width:0.264583"
       id="path1-3-2"
       cx="1.322916"
       cy="81.888542"
       rx="3.4395833"
       ry="3.3072915"
       inkscape:label="OCTAVE"
       inkscape:transform-center-x="-8.2020833"
       inkscape:transform-center-y="-1.8520833"
       transform="translate(10.857004,-60.325)" />
    <ellipse
       style="display:inline;fill:#ff0000;fill-opacity:1;stroke-width:0.264583"
       id="path1-5-1-2"
       cx="49.775482"
       cy="81.888542"
       rx="3.4395833"
       ry="3.3072915"
       inkscape:label="SKIP"
       transform="translate(10.857004,-60.325)" />
    <ellipse
       style="display:inline;fill:#ff0000;fill-opacity:1;stroke-width:0.264583"
       id="path1-1-1-0"
       cx="74.001762"
       cy="81.888542"
       rx="3.4395833"
       ry="3.3072915"
       inkscape:label="REVERSAL"
       transform="translate(10.857004,-60.325)" />
    <ellipse
       style="display:inline;fill:#ff0000;fill-opacity:1;stroke-width:0.264583"
       id="path1-4-7-07"
       cx="98.228058"
       cy="81.888542"
       rx="3.4395833"
       ry="3.3072915"
       inkscape:label="LENGTH"
       inkscape:transform-center-x="18.25625"
       inkscape:transform-center-y="-0.52916667"
       transform="translate(10.857004,-60.325)" />
    <ellipse
       style="display:inline;fill:#ff0000;fill-opacity:1;stroke-width:0.264583"
       id="path1-78-8-2"
       cx="25.549198"
       cy="81.888542"
       rx="3.4395833"
       ry="3.3072915"
       inkscape:label="MODULO"
       transform="translate(10.857004,-60.325)" />
    <ellipse
       style="display:inline;fill:#ff0000;fill-opacity:1;stroke-width:0.264583"
       id="path1-78-0-6-3"
       cx="21.336"
       cy="31.088543"
       rx="3.4395833"
       ry="3.3072915"
       inkscape:highlight-color="#ff0000"
       inkscape:label="MODE"
       transform="translate(0,12.435418)" />
    <ellipse
       style="display:inline;fill:#0000ff;fill-opacity:1;stroke-width:0.264583"
       id="ALLCVOUT"
       cx="72.162033"
       cy="24.34001"
       rx="3.4395833"
       ry="3.3072915"
       inkscape:highlight-color="#0000ff"
       inkscape:label="ALLCVOUT"
       transform="translate(3.8433875,16.933334)" />
    <ellipse
       style="display:inline;fill:#0000ff;fill-opacity:1;stroke-width:0.264583"
       id="GATEOUT"
       cx="90.153702"
       cy="24.34001"
       rx="3.4395833"
       ry="3.3072915"
       inkscape:highlight-color="#0000ff"
       inkscape:label="GATEOUT"
       transform="translate(3.8433875,16.933334)" />
    <ellipse
       style="display:inline;fill:#0000ff;fill-opacity:1;stroke-width:0.264583"
       id="TRIGGER"
       cx="108.14538"
       cy="24.34001"
       rx="3.4395833"
       ry="3.3072915"
       inkscape:label="TRIGGER"
       inkscape:highlight-color="#0000ff"
       transform="translate(3.8433875,16.933334)" />
    <ellipse
       style="display:inline;fill:#ff0000;fill-opacity:1;stroke-width:0.264583"
       id="path1"
       cx="25.977476"
       cy="46.434376"
       rx="3.4395833"
       ry="3.3072915"
       inkscape:label="VOLTS1"
       transform="translate(-0.26566172,13.49375)" />
    <ellipse
       style="display:inline;fill:#ff0000;fill-opacity:1;stroke-width:0.264583"
       id="path1-7"
       cx="100.18117"
       cy="46.434376"
       rx="3.4395833"
       ry="3.3072915"
       inkscape:label="VOLTS7"
       transform="translate(-0.26566172,13.49375)" />
    <ellipse
       style="display:inline;fill:#ff0000;fill-opacity:1;stroke-width:0.264583"
       id="path1-5"
       cx="50.71204"
       cy="46.434376"
       rx="3.4395833"
       ry="3.3072915"
       inkscape:label="VOLTS3"
       transform="translate(-0.26566172,13.49375)" />
    <ellipse
       style="display:inline;fill:#ff0000;fill-opacity:1;stroke-width:0.264583"
       id="path1-1"
       cx="63.079327"
       cy="46.434376"
       rx="3.4395833"
       ry="3.3072915"
       inkscape:label="VOLTS4"
       transform="translate(-0.26566172,13.49375)" />
    <ellipse
       style="display:inline;fill:#ff0000;fill-opacity:1;stroke-width:0.264583"
       id="path1-2"
       cx="112.54845"
       cy="46.434376"
       rx="3.4395833"
       ry="3.3072915"
       inkscape:label="VOLTS8"
       transform="translate(-0.26566172,13.49375)" />
    <ellipse
       style="display:inline;fill:#ff0000;fill-opacity:1;stroke-width:0.264583"
       id="path1-4"
       cx="75.446602"
       cy="46.434376"
       rx="3.4395833"
       ry="3.3072915"
       inkscape:label="VOLTS5"
       transform="translate(-0.26566172,13.49375)" />
    <ellipse
       style="display:inline;fill:#ff0000;fill-opacity:1;stroke-width:0.264583"
       id="path1-19"
       cx="87.813881"
       cy="46.434376"
       rx="3.4395833"
       ry="3.3072915"
       inkscape:label="VOLTS6"
       transform="translate(-0.26566172,13.49375)" />
    <ellipse
       style="display:inline;fill:#ff0000;fill-opacity:1;stroke-width:0.264583"
       id="path1-78"
       cx="38.344761"
       cy="46.434376"
       rx="3.4395833"
       ry="3.3072915"
       inkscape:label="VOLTS2"
       transform="translate(-0.26566172,13.49375)" />
    <ellipse
       style="display:inline;fill:#0000ff;fill-opacity:1;stroke-width:0.264583"
       id="path1-3-9"
       cx="25.4"
       cy="81.888542"
       rx="3.4400001"
       ry="3.3072915"
       inkscape:highlight-color="#0000ff"
       inkscape:label="CV1"
       transform="translate(0.31181479,34.924995)" />
    <ellipse
       style="display:inline;fill:#0000ff;fill-opacity:1;stroke-width:0.264583"
       id="path1-7-9-4"
       cx="99.603691"
       cy="81.888542"
       rx="3.4395833"
       ry="3.3072915"
       inkscape:highlight-color="#0000ff"
       inkscape:label="CV7"
       transform="translate(0.31181479,34.924995)" />
    <ellipse
       style="display:inline;fill:#0000ff;fill-opacity:1;stroke-width:0.264583"
       id="path1-5-1-6"
       cx="50.134563"
       cy="81.888542"
       rx="3.4395833"
       ry="3.3072915"
       inkscape:highlight-color="#0000ff"
       inkscape:label="CV3"
       transform="translate(0.31181479,34.924995)" />
    <ellipse
       style="display:inline;fill:#0000ff;fill-opacity:1;stroke-width:0.264583"
       id="path1-1-1-2"
       cx="62.50185"
       cy="81.888542"
       rx="3.4395833"
       ry="3.3072915"
       inkscape:highlight-color="#0000ff"
       inkscape:label="CV4"
       transform="translate(0.31181479,34.924995)" />
    <ellipse
       style="display:inline;fill:#0000ff;fill-opacity:1;stroke-width:0.264583"
       id="path1-2-41-6"
       cx="111.97097"
       cy="81.888542"
       rx="3.4395833"
       ry="3.3072915"
       inkscape:highlight-color="#0000ff"
       inkscape:label="CV8"
       transform="translate(0.31181479,34.924995)" />
    <ellipse
       style="display:inline;fill:#0000ff;fill-opacity:1;stroke-width:0.264583"
       id="path1-4-7-0"
       cx="74.869125"
       cy="81.888542"
       rx="3.4395833"
       ry="3.3072915"
       inkscape:highlight-color="#0000ff"
       inkscape:label="CV5"
       transform="translate(0.31181479,34.924995)" />
    <ellipse
       style="display:inline;fill:#0000ff;fill-opacity:1;stroke-width:0.264583"
       id="path1-19-2-4"
       cx="87.236404"
       cy="81.888542"
       rx="3.4395833"
       ry="3.3072915"
       inkscape:highlight-color="#0000ff"
       inkscape:label="CV6"
       transform="translate(0.31181479,34.924995)" />
    <ellipse
       style="display:inline;fill:#0000ff;fill-opacity:1;stroke-width:0.265;stroke-dasharray:none"
       id="path1-78-8-3"
       cx="37.767284"
       cy="81.888542"
       rx="3.4400001"
       ry="3.3072915"
       inkscape:highlight-color="#0000ff"
       inkscape:label="CV2"
       transform="translate(0.31181479,34.924995)" />
    <ellipse
       style="display:inline;fill:#00ff00;fill-opacity:1;stroke-width:0.264583"
       id="path1-78-0-6"
       cx="58.333332"
       cy="41.273342"
       rx="3.4395833"
       ry="3.3072915"
       inkscape:highlight-color="#00ff00"
       inkscape:label="RESET" />
    <ellipse
       style="display:inline;fill:#ff0000;fill-opacity:1;stroke-width:0.264583"
       id="path1-3"
       cx="25.4"
       cy="81.888542"
       rx="3.4395833"
       ry="3.3072915"
       inkscape:label="GATE1"
       transform="translate(0.31181479,15.963192)" />
    <ellipse
       style="display:inline;fill:#ff0000;fill-opacity:1;stroke-width:0.264583"
       id="path1-7-9"
       cx="99.603691"
       cy="81.888542"
       rx="3.4395833"
       ry="3.3072915"
       inkscape:label="GATE7"
       transform="translate(0.31181479,15.963192)" />
    <ellipse
       style="display:inline;fill:#ff0000;fill-opacity:1;stroke-width:0.264583"
       id="path1-5-1"
       cx="50.134563"
       cy="81.888542"
       rx="3.4395833"
       ry="3.3072915"
       inkscape:label="GATE3"
       transform="translate(0.31181479,15.963192)" />
    <ellipse
       style="display:inline;fill:#ff0000;fill-opacity:1;stroke-width:0.264583"
       id="path1-1-1"
       cx="62.50185"
       cy="81.888542"
       rx="3.4395833"
       ry="3.3072915"
       inkscape:label="GATE4"
       transform="translate(0.31181479,15.963192)" />
    <ellipse
       style="display:inline;fill:#ff0000;fill-opacity:1;stroke-width:0.264583"
       id="path1-2-41"
       cx="111.97097"
       cy="81.888542"
       rx="3.4395833"
       ry="3.3072915"
       inkscape:label="GATE8"
       transform="translate(0.31181479,15.963192)" />
    <ellipse
       style="display:inline;fill:#ff0000;fill-opacity:1;stroke-width:0.264583"
       id="path1-4-7"
       cx="74.869125"
       cy="81.888542"
       rx="3.4395833"
       ry="3.3072915"
       inkscape:label="GATE5"
       transform="translate(0.31181479,15.963192)" />
    <ellipse
       style="display:inline;fill:#ff0000;fill-opacity:1;stroke-width:0.264583"
       id="path1-19-2"
       cx="87.236404"
       cy="81.888542"
       rx="3.4395833"
       ry="3.3072915"
       inkscape:label="GATE6"
       transform="translate(0.31181479,15.963192)" />
    <ellipse
       style="display:inline;fill:#ff0000;fill-opacity:1;stroke-width:0.264583"
       id="path1-78-8"
       cx="37.767284"
       cy="81.888542"
       rx="3.4395833"
       ry="3.3072915"
       inkscape:label="GATE2"
       transform="translate(0.31181479,15.963192)" />
    <ellipse
       style="display:inline;fill:#ff0000;fill-opacity:1;stroke-width:0.264583"
       id="path1-50"
       cx="25.929167"
       cy="65.484367"
       rx="3.4395833"
       ry="3.3072915"
       inkscape:label="SPACE1"
       transform="translate(-0.21735239,13.405563)" />
    <ellipse
       style="display:inline;fill:#ff0000;fill-opacity:1;stroke-width:0.264583"
       id="path1-7-3"
       cx="100.13286"
       cy="65.484367"
       rx="3.4395833"
       ry="3.3072915"
       inkscape:label="SPACE7"
       transform="translate(-0.21735239,13.405563)" />
    <ellipse
       style="display:inline;fill:#ff0000;fill-opacity:1;stroke-width:0.264583"
       id="path1-5-5"
       cx="50.663731"
       cy="65.484367"
       rx="3.4395833"
       ry="3.3072915"
       inkscape:label="SPACE3"
       transform="translate(-0.21735239,13.405563)" />
    <ellipse
       style="display:inline;fill:#ff0000;fill-opacity:1;stroke-width:0.264583"
       id="path1-1-7"
       cx="63.031017"
       cy="65.484367"
       rx="3.4395833"
       ry="3.3072915"
       inkscape:label="SPACE4"
       transform="translate(-0.21735239,13.405563)" />
    <ellipse
       style="display:inline;fill:#ff0000;fill-opacity:1;stroke-width:0.264583"
       id="path1-2-4"
       cx="112.50014"
       cy="65.484367"
       rx="3.4395833"
       ry="3.3072915"
       inkscape:label="SPACE8"
       transform="translate(-0.21735239,13.405563)" />
    <ellipse
       style="display:inline;fill:#ff0000;fill-opacity:1;stroke-width:0.264583"
       id="path1-4-2"
       cx="75.398293"
       cy="65.484367"
       rx="3.4395833"
       ry="3.3072915"
       inkscape:label="SPACE5"
       transform="translate(-0.21735239,13.405563)" />
    <ellipse
       style="display:inline;fill:#ff0000;fill-opacity:1;stroke-width:0.264583"
       id="path1-19-9"
       cx="87.765572"
       cy="65.484367"
       rx="3.4395833"
       ry="3.3072915"
       inkscape:label="SPACE6"
       transform="translate(-0.21735239,13.405563)" />
    <ellipse
       style="display:inline;fill:#ff0000;fill-opacity:1;stroke-width:0.264583"
       id="path1-78-7"
       cx="38.296452"
       cy="65.484367"
       rx="3.4395833"
       ry="3.3072915"
       inkscape:label="SPACE2"
       transform="translate(-0.21735239,13.405563)" />
  </g>
  <metadata
     id="metadata1">
    <rdf:RDF>
      <cc:Work
         rdf:about="">
        <dc:publisher>
          <cc:Agent>
            <dc:title>WavsynModular</dc:title>
          </cc:Agent>
        </dc:publisher>
        <dc:creator>
          <cc:Agent>
            <dc:title>Erich Izdepsk</dc:title>
          </cc:Agent>
        </dc:creator>
      </cc:Work>
    </rdf:RDF>
  </metadata>
</svg>
